Helius-Regular.ufo
<glyph name="exclam" format="2">
  <advance width="240"/>
  <unicode hex="0021"/>
  <outline>
    <contour>
      <point x="165" y="633" type="line"/>
      <point x="75" y="633" type="line"/>
      <point x="75" y="422" type="line"/>
      <point x="90" y="188" type="line"/>
      <point x="150" y="188" type="line"/>
      <point x="165" y="422" type="line"/>
    </contour>
    <contour>
      <point x="165" y="0" type="line"/>
      <point x="75" y="0" type="line"/>
      <point x="75" y="94" type="line"/>
      <point x="165" y="94" type="line"/>
    </contour>
  </outline>
</glyph>
<glyph name="numbersign" format="2">
  <advance width="541"/>
  <unicode hex="0023"/>
  <outline>
    <contour>
      <point x="328" y="235" type="line"/>
      <point x="206" y="235" type="line"/>
      <point x="224" y="362" type="line"/>
      <point x="345" y="362" type="line"/>
    </contour>
    <contour>
      <point x="486" y="362" type="line"/>
      <point x="486" y="422" type="line"/>
      <point x="414" y="422" type="line"/>
      <point x="440" y="603" type="line"/>
      <point x="379" y="603" type="line"/>
      <point x="354" y="422" type="line"/>
      <point x="232" y="422" type="line"/>
      <point x="258" y="603" type="line"/>
      <point x="197" y="603" type="line"/>
      <point x="172" y="422" type="line"/>
      <point x="80" y="422" type="line"/>
      <point x="80" y="362" type="line"/>
      <point x="163" y="362" type="line"/>
      <point x="146" y="235" type="line"/>
      <point x="55" y="235" type="line"/>
      <point x="55" y="175" type="line"/>
      <point x="137" y="175" type="line"/>
      <point x="113" y="0" type="line"/>
      <point x="173" y="0" type="line"/>
      <point x="198" y="175" type="line"/>
      <point x="319" y="175" type="line"/>
      <point x="295" y="0" type="line"/>
      <point x="355" y="0" type="line"/>
      <point x="380" y="175" type="line"/>
      <point x="461" y="175" type="line"/>
      <point x="461" y="235" type="line"/>
      <point x="388" y="235" type="line"/>
      <point x="406" y="362" type="line"/>
    </contour>
  </outline>
</glyph>
<glyph name="dollar" format="2">
  <advance width="503"/>
  <unicode hex="0024"/>
  <outline>
    <contour>
      <point x="281" y="55" type="curve"/>
      <point x="281" y="235" type="line"/>
      <point x="353" y="216"/>
      <point x="387" y="197"/>
      <point x="387" y="148" type="curve" smooth="yes"/>
      <point x="387" y="87"/>
      <point x="334" y="60"/>
    </contour>
    <contour>
      <point x="131" y="387" type="curve" smooth="yes"/>
      <point x="131" y="429"/>
      <point x="167" y="456"/>
      <point x="221" y="463" type="curve"/>
      <point x="221" y="314" type="line"/>
      <point x="160" y="332"/>
      <point x="131" y="350"/>
    </contour>
    <contour>
      <point x="281" y="298" type="curve"/>
      <point x="281" y="461" type="line"/>
      <point x="325" y="453"/>
      <point x="374" y="428"/>
      <point x="374" y="352" type="curve"/>
      <point x="434" y="352" type="line"/>
      <point x="434" y="449"/>
      <point x="374" y="509"/>
      <point x="281" y="522" type="curve"/>
      <point x="281" y="603" type="line"/>
      <point x="221" y="603" type="line"/>
      <point x="221" y="523" type="line"/>
      <point x="146" y="517"/>
      <point x="71" y="473"/>
      <point x="71" y="390" type="curve" smooth="yes"/>
      <point x="71" y="323"/>
      <point x="120" y="277"/>
      <point x="221" y="251" type="curve"/>
      <point x="221" y="58" type="line"/>
      <point x="162" y="68"/>
      <point x="114" y="106"/>
      <point x="114" y="170" type="curve" smooth="yes"/>
      <point x="114" y="179" type="line"/>
      <point x="55" y="185" type="line"/>
      <point x="55" y="183" type="line" smooth="yes"/>
      <point x="55" y="65"/>
      <point x="97" y="16"/>
      <point x="221" y="-3" type="curve"/>
      <point x="221" y="-85" type="line"/>
      <point x="281" y="-85" type="line"/>
      <point x="281" y="-5" type="line"/>
      <point x="371" y="1"/>
      <point x="448" y="54"/>
      <point x="448" y="148" type="curve" smooth="yes"/>
      <point x="448" y="249"/>
      <point x="360" y="276"/>
    </contour>
  </outline>
</glyph>
<glyph name="percent" format="2">
  <advance width="586"/>
  <unicode hex="0025"/>
  <outline>
    <contour>
      <point x="164" y="0" type="line"/>
      <point x="493" y="518" type="line"/>
      <point x="422" y="518" type="line"/>
      <point x="93" y="0" type="line"/>
    </contour>
    <contour>
      <point x="164" y="474" type="curve" smooth="yes"/>
      <point x="108" y="474"/>
      <point x="105" y="411"/>
      <point x="105" y="399" type="curve" smooth="yes"/>
      <point x="105" y="386"/>
      <point x="108" y="324"/>
      <point x="164" y="324" type="curve" smooth="yes"/>
      <point x="221" y="324"/>
      <point x="224" y="386"/>
      <point x="224" y="399" type="curve" smooth="yes"/>
      <point x="224" y="411"/>
      <point x="221" y="474"/>
    </contour>
    <contour>
      <point x="164" y="264" type="curve" smooth="yes"/>
      <point x="87" y="264"/>
      <point x="45" y="328"/>
      <point x="45" y="399" type="curve" smooth="yes"/>
      <point x="45" y="470"/>
      <point x="87" y="534"/>
      <point x="164" y="534" type="curve" smooth="yes"/>
      <point x="241" y="534"/>
      <point x="284" y="471"/>
      <point x="284" y="399" type="curve" smooth="yes"/>
      <point x="284" y="327"/>
      <point x="241" y="264"/>
    </contour>
    <contour>
      <point x="421" y="194" type="curve" smooth="yes"/>
      <point x="365" y="194"/>
      <point x="362" y="131"/>
      <point x="362" y="119" type="curve" smooth="yes"/>
      <point x="362" y="106"/>
      <point x="365" y="44"/>
      <point x="421" y="44" type="curve" smooth="yes"/>
      <point x="478" y="44"/>
      <point x="481" y="106"/>
      <point x="481" y="119" type="curve" smooth="yes"/>
      <point x="481" y="131"/>
      <point x="478" y="194"/>
    </contour>
    <contour>
      <point x="421" y="-16" type="curve" smooth="yes"/>
      <point x="344" y="-16"/>
      <point x="302" y="48"/>
      <point x="302" y="119" type="curve" smooth="yes"/>
      <point x="302" y="190"/>
      <point x="344" y="254"/>
      <point x="421" y="254" type="curve" smooth="yes"/>
      <point x="498" y="254"/>
      <point x="541" y="191"/>
      <point x="541" y="119" type="curve" smooth="yes"/>
      <point x="541" y="47"/>
      <point x="498" y="-16"/>
    </contour>
  </outline>
</glyph>
<glyph name="ampersand" format="2">
  <advance width="614"/>
  <unicode hex="0026"/>
  <outline>
    <contour>
      <point x="259" y="60" type="curve" smooth="yes"/>
      <point x="185" y="60"/>
      <point x="115" y="112"/>
      <point x="115" y="189" type="curve" smooth="yes"/>
      <point x="115" y="235"/>
      <point x="140" y="277"/>
      <point x="185" y="310" type="curve"/>
      <point x="375" y="108" type="line"/>
      <point x="340" y="76"/>
      <point x="301" y="60"/>
    </contour>
    <contour>
      <point x="476" y="0" type="line"/>
      <point x="559" y="0" type="line"/>
      <point x="456" y="109" type="line"/>
      <point x="460" y="113" type="line"/>
      <point x="495" y="161"/>
      <point x="513" y="209"/>
      <point x="517" y="220" type="curve" smooth="yes"/>
      <point x="524" y="241" type="line"/>
      <point x="461" y="241" type="line"/>
      <point x="460" y="237"/>
      <point x="446" y="197"/>
      <point x="415" y="153" type="curve"/>
      <point x="198" y="384" type="line"/>
      <point x="197" y="384" type="line"/>
      <point x="178" y="404"/>
      <point x="157" y="435"/>
      <point x="157" y="468" type="curve" smooth="yes"/>
      <point x="157" y="508"/>
      <point x="189" y="543"/>
      <point x="233" y="543" type="curve" smooth="yes"/>
      <point x="276" y="543"/>
      <point x="309" y="508"/>
      <point x="309" y="461" type="curve"/>
      <point x="369" y="461" type="line"/>
      <point x="369" y="539"/>
      <point x="312" y="603"/>
      <point x="233" y="603" type="curve" smooth="yes"/>
      <point x="156" y="603"/>
      <point x="97" y="541"/>
      <point x="97" y="467" type="curve" smooth="yes"/>
      <point x="97" y="416"/>
      <point x="124" y="376"/>
      <point x="144" y="354" type="curve"/>
      <point x="92" y="313"/>
      <point x="55" y="257"/>
      <point x="55" y="189" type="curve" smooth="yes"/>
      <point x="55" y="80"/>
      <point x="150" y="0"/>
      <point x="259" y="0" type="curve" smooth="yes"/>
      <point x="316" y="0"/>
      <point x="370" y="22"/>
      <point x="416" y="64" type="curve"/>
    </contour>
  </outline>
</glyph>
<glyph name="quotesingle" format="2">
  <advance width="178"/>
  <unicode hex="0027"/>
  <outline>
    <contour>
      <point x="83" y="443" type="line"/>
      <point x="54" y="493"/>
      <point x="25" y="575"/>
      <point x="25" y="630" type="curve"/>
      <point x="85" y="630" type="line"/>
      <point x="85" y="584"/>
      <point x="124" y="480"/>
      <point x="153" y="443" type="curve"/>
    </contour>
  </outline>
</glyph>
<glyph name="parenleft" format="2">
  <advance width="251"/>
  <unicode hex="0028"/>
  <outline>
    <contour>
      <point x="225" y="684" type="curve"/>
      <point x="160" y="684" type="line"/>
      <point x="101" y="590"/>
      <point x="45" y="459"/>
      <point x="45" y="301" type="curve" smooth="yes"/>
      <point x="45" y="143"/>
      <point x="101" y="11"/>
      <point x="160" y="-84" type="curve"/>
      <point x="226" y="-84" type="line"/>
      <point x="165" y="9"/>
      <point x="105" y="141"/>
      <point x="105" y="301" type="curve"/>
      <point x="105" y="461"/>
      <point x="165" y="592"/>
    </contour>
  </outline>
</glyph>
<glyph name="parenright" format="2">
  <advance width="251"/>
  <unicode hex="0029"/>
  <outline>
    <contour>
      <point x="26" y="683" type="curve"/>
      <point x="91" y="683" type="line"/>
      <point x="150" y="589"/>
      <point x="206" y="458"/>
      <point x="206" y="300" type="curve" smooth="yes"/>
      <point x="206" y="142"/>
      <point x="150" y="10"/>
      <point x="91" y="-85" type="curve"/>
      <point x="25" y="-85" type="line"/>
      <point x="86" y="8"/>
      <point x="146" y="140"/>
      <point x="146" y="300" type="curve"/>
      <point x="146" y="460"/>
      <point x="86" y="591"/>
    </contour>
  </outline>
</glyph>
<glyph name="asterisk" format="2">
  <advance width="444"/>
  <unicode hex="002A"/>
  <outline>
    <contour>
      <point x="389" y="375" type="line"/>
      <point x="371" y="432" type="line"/>
      <point x="252" y="393" type="line"/>
      <point x="252" y="518" type="line"/>
      <point x="192" y="518" type="line"/>
      <point x="192" y="393" type="line"/>
      <point x="73" y="432" type="line"/>
      <point x="55" y="375" type="line"/>
      <point x="173" y="336" type="line"/>
      <point x="100" y="235" type="line"/>
      <point x="148" y="200" type="line"/>
      <point x="222" y="301" type="line"/>
      <point x="295" y="200" type="line"/>
      <point x="344" y="235" type="line"/>
      <point x="270" y="336" type="line"/>
    </contour>
  </outline>
</glyph>
<glyph name="plus" format="2">
  <advance width="410"/>
  <unicode hex="002B"/>
  <outline>
    <contour>
      <point x="385" y="289" type="line"/>
      <point x="235" y="289" type="line"/>
      <point x="235" y="439" type="line"/>
      <point x="175" y="439" type="line"/>
      <point x="175" y="289" type="line"/>
      <point x="25" y="289" type="line"/>
      <point x="25" y="229" type="line"/>
      <point x="175" y="229" type="line"/>
      <point x="175" y="79" type="line"/>
      <point x="235" y="79" type="line"/>
      <point x="235" y="229" type="line"/>
      <point x="385" y="229" type="line"/>
    </contour>
  </outline>
</glyph>
<glyph name="comma" format="2">
  <advance width="178"/>
  <unicode hex="002C"/>
  <outline>
    <contour>
      <point x="95" y="-85" type="line"/>
      <point x="124" y="-32"/>
      <point x="153" y="44"/>
      <point x="153" y="103" type="curve"/>
      <point x="93" y="103" type="line"/>
      <point x="93" y="57"/>
      <point x="54" y="-48"/>
      <point x="25" y="-85" type="curve"/>
    </contour>
  </outline>
</glyph>
<glyph name="hyphen" format="2">
  <advance width="220"/>
  <unicode hex="002D"/>
  <outline>
    <contour>
      <point x="195" y="327" type="line"/>
      <point x="25" y="327" type="line"/>
      <point x="25" y="387" type="line"/>
      <point x="195" y="387" type="line"/>
    </contour>
  </outline>
</glyph>
<glyph name="period" format="2">
  <advance width="140"/>
  <unicode hex="002E"/>
  <outline>
    <contour>
      <point x="115" y="0" type="line"/>
      <point x="25" y="0" type="line"/>
      <point x="25" y="94" type="line"/>
      <point x="115" y="94" type="line"/>
    </contour>
  </outline>
</glyph>
<glyph name="slash" format="2">
  <advance width="510"/>
  <unicode hex="002F"/>
  <outline>
    <contour>
      <point x="419" y="683" type="line"/>
      <point x="25" y="-165" type="line"/>
      <point x="91" y="-165" type="line"/>
      <point x="485" y="683" type="line"/>
    </contour>
  </outline>
</glyph>
<glyph name="zero" format="2">
  <advance width="509"/>
  <unicode hex="0030"/>
  <outline>
    <contour>
      <point x="254" y="-6" type="curve" smooth="yes"/>
      <point x="99" y="-6"/>
      <point x="45" y="166"/>
      <point x="45" y="300" type="curve" smooth="yes"/>
      <point x="45" y="432"/>
      <point x="96" y="607"/>
      <point x="254" y="607" type="curve" smooth="yes"/>
      <point x="410" y="607"/>
      <point x="464" y="434"/>
      <point x="464" y="301" type="curve" smooth="yes"/>
      <point x="464" y="172"/>
      <point x="412" y="-6"/>
    </contour>
    <contour>
      <point x="254" y="547" type="curve" smooth="yes"/>
      <point x="138" y="547"/>
      <point x="105" y="396"/>
      <point x="105" y="301" type="curve" smooth="yes"/>
      <point x="105" y="209"/>
      <point x="136" y="54"/>
      <point x="254" y="54" type="curve" smooth="yes"/>
      <point x="371" y="54"/>
      <point x="404" y="205"/>
      <point x="404" y="300" type="curve" smooth="yes"/>
      <point x="404" y="393"/>
      <point x="373" y="547"/>
    </contour>
  </outline>
</glyph>
<glyph name="one" format="2">
  <advance width="323"/>
  <unicode hex="0031"/>
  <outline>
    <contour>
      <point x="185" y="603" type="line"/>
      <point x="25" y="494" type="line"/>
      <point x="59" y="444" type="line"/>
      <point x="178" y="526" type="line"/>
      <point x="178" y="0" type="line"/>
      <point x="238" y="0" type="line"/>
      <point x="238" y="603" type="line"/>
    </contour>
  </outline>
</glyph>
<glyph name="two" format="2">
  <advance width="466"/>
  <unicode hex="0032"/>
  <outline>
    <contour>
      <point x="137" y="60" type="line"/>
      <point x="197" y="127"/>
      <point x="303" y="245"/>
      <point x="373" y="324" type="curve" smooth="yes"/>
      <point x="401" y="356"/>
      <point x="421" y="395"/>
      <point x="421" y="439" type="curve" smooth="yes"/>
      <point x="421" y="536"/>
      <point x="325" y="608"/>
      <point x="230" y="608" type="curve" smooth="yes"/>
      <point x="123" y="608"/>
      <point x="47" y="516"/>
      <point x="47" y="408" type="curve"/>
      <point x="107" y="408" type="line"/>
      <point x="107" y="504"/>
      <point x="176" y="548"/>
      <point x="234" y="548" type="curve" smooth="yes"/>
      <point x="293" y="548"/>
      <point x="361" y="501"/>
      <point x="361" y="438" type="curve" smooth="yes"/>
      <point x="361" y="413"/>
      <point x="350" y="388"/>
      <point x="329" y="364" type="curve" smooth="yes"/>
      <point x="226" y="249"/>
      <point x="49" y="52"/>
      <point x="47" y="50" type="curve" smooth="yes"/>
      <point x="45" y="48" type="line"/>
      <point x="45" y="0" type="line"/>
      <point x="421" y="0" type="line"/>
      <point x="421" y="60" type="line"/>
    </contour>
  </outline>
</glyph>
<glyph name="three" format="2">
  <advance width="529"/>
  <unicode hex="0033"/>
  <outline>
    <contour>
      <point x="389" y="324" type="curve"/>
      <point x="432" y="351"/>
      <point x="456" y="396"/>
      <point x="456" y="447" type="curve" smooth="yes"/>
      <point x="456" y="551"/>
      <point x="355" y="608"/>
      <point x="258" y="608" type="curve" smooth="yes"/>
      <point x="144" y="608"/>
      <point x="55" y="528"/>
      <point x="55" y="406" type="curve"/>
      <point x="115" y="406" type="line"/>
      <point x="115" y="511"/>
      <point x="195" y="548"/>
      <point x="261" y="548" type="curve" smooth="yes"/>
      <point x="328" y="548"/>
      <point x="396" y="510"/>
      <point x="396" y="445" type="curve" smooth="yes"/>
      <point x="396" y="411"/>
      <point x="378" y="353"/>
      <point x="260" y="353" type="curve" smooth="yes"/>
      <point x="237" y="353" type="line"/>
      <point x="237" y="293" type="line"/>
      <point x="260" y="293" type="line" smooth="yes"/>
      <point x="399" y="293"/>
      <point x="414" y="211"/>
      <point x="414" y="176" type="curve" smooth="yes"/>
      <point x="414" y="97"/>
      <point x="342" y="55"/>
      <point x="271" y="55" type="curve" smooth="yes"/>
      <point x="196" y="55"/>
      <point x="115" y="99"/>
      <point x="115" y="197" type="curve"/>
      <point x="55" y="197" type="line"/>
      <point x="55" y="76"/>
      <point x="150" y="-5"/>
      <point x="268" y="-5" type="curve" smooth="yes"/>
      <point x="377" y="-5"/>
      <point x="474" y="64"/>
      <point x="474" y="176" type="curve" smooth="yes"/>
      <point x="474" y="238"/>
      <point x="443" y="293"/>
    </contour>
  </outline>
</glyph>
<glyph name="four" format="2">
  <advance width="496"/>
  <unicode hex="0034"/>
  <outline>
    <contour>
      <point x="383" y="603" type="line"/>
      <point x="333" y="603" type="line"/>
      <point x="45" y="173" type="line"/>
      <point x="45" y="118" type="line"/>
      <point x="323" y="118" type="line"/>
      <point x="323" y="0" type="line"/>
      <point x="383" y="0" type="line"/>
      <point x="383" y="118" type="line"/>
      <point x="471" y="118" type="line"/>
      <point x="471" y="178" type="line"/>
      <point x="383" y="178" type="line"/>
    </contour>
    <contour>
      <point x="323" y="178" type="line"/>
      <point x="121" y="178" type="line"/>
      <point x="323" y="480" type="line"/>
    </contour>
  </outline>
</glyph>
<glyph name="five" format="2">
  <advance width="549"/>
  <unicode hex="0035"/>
  <outline>
    <contour>
      <point x="285" y="425" type="curve" smooth="yes"/>
      <point x="236" y="425"/>
      <point x="187" y="412"/>
      <point x="149" y="380" type="curve"/>
      <point x="149" y="545" type="line"/>
      <point x="464" y="545" type="line"/>
      <point x="464" y="605" type="line"/>
      <point x="89" y="605" type="line"/>
      <point x="89" y="288" type="line"/>
      <point x="147" y="277" type="line"/>
      <point x="168" y="334"/>
      <point x="218" y="365"/>
      <point x="285" y="365" type="curve" smooth="yes"/>
      <point x="395" y="365"/>
      <point x="434" y="283"/>
      <point x="434" y="211" type="curve" smooth="yes"/>
      <point x="434" y="140"/>
      <point x="395" y="57"/>
      <point x="285" y="57" type="curve" smooth="yes"/>
      <point x="174" y="57"/>
      <point x="135" y="140"/>
      <point x="135" y="211" type="curve"/>
      <point x="75" y="211" type="line"/>
      <point x="75" y="87"/>
      <point x="158" y="-3"/>
      <point x="285" y="-3" type="curve" smooth="yes"/>
      <point x="412" y="-3"/>
      <point x="494" y="87"/>
      <point x="494" y="211" type="curve" smooth="yes"/>
      <point x="494" y="336"/>
      <point x="411" y="425"/>
    </contour>
  </outline>
</glyph>
<glyph name="six" format="2">
  <advance width="500"/>
  <unicode hex="0036"/>
  <outline>
    <contour>
      <point x="250" y="407" type="curve" smooth="yes"/>
      <point x="238" y="407"/>
      <point x="226" y="406"/>
      <point x="215" y="404" type="curve"/>
      <point x="357" y="606" type="line"/>
      <point x="284" y="606" type="line"/>
      <point x="86" y="325" type="line" smooth="yes"/>
      <point x="60" y="290"/>
      <point x="45" y="246"/>
      <point x="45" y="202" type="curve" smooth="yes"/>
      <point x="45" y="89"/>
      <point x="137" y="-3"/>
      <point x="250" y="-3" type="curve" smooth="yes"/>
      <point x="363" y="-3"/>
      <point x="455" y="89"/>
      <point x="455" y="202" type="curve" smooth="yes"/>
      <point x="455" y="315"/>
      <point x="363" y="407"/>
    </contour>
    <contour>
      <point x="250" y="57" type="curve" smooth="yes"/>
      <point x="170" y="57"/>
      <point x="105" y="122"/>
      <point x="105" y="202" type="curve" smooth="yes"/>
      <point x="105" y="231"/>
      <point x="113" y="258"/>
      <point x="128" y="280" type="curve" smooth="yes"/>
      <point x="135" y="290" type="line" smooth="yes"/>
      <point x="161" y="325"/>
      <point x="203" y="347"/>
      <point x="250" y="347" type="curve" smooth="yes"/>
      <point x="330" y="347"/>
      <point x="395" y="282"/>
      <point x="395" y="202" type="curve" smooth="yes"/>
      <point x="395" y="122"/>
      <point x="330" y="57"/>
    </contour>
  </outline>
</glyph>
<glyph name="seven" format="2">
  <advance width="455"/>
  <unicode hex="0037"/>
  <outline>
    <contour>
      <point x="430" y="603" type="line"/>
      <point x="25" y="603" type="line"/>
      <point x="25" y="543" type="line"/>
      <point x="344" y="543" type="line"/>
      <point x="88" y="0" type="line"/>
      <point x="154" y="0" type="line"/>
      <point x="430" y="585" type="line"/>
    </contour>
  </outline>
  <guideline angle="0" x="0" y="603"/>
</glyph>
<glyph name="eight" format="2">
  <advance width="522"/>
  <unicode hex="0038"/>
  <outline>
    <contour>
      <point x="386" y="324" type="curve"/>
      <point x="428" y="352"/>
      <point x="450" y="399"/>
      <point x="450" y="449" type="curve" smooth="yes"/>
      <point x="450" y="554"/>
      <point x="357" y="608"/>
      <point x="261" y="608" type="curve" smooth="yes"/>
      <point x="165" y="608"/>
      <point x="72" y="554"/>
      <point x="72" y="449" type="curve" smooth="yes"/>
      <point x="72" y="399"/>
      <point x="95" y="352"/>
      <point x="136" y="324" type="curve"/>
      <point x="83" y="293"/>
      <point x="55" y="237"/>
      <point x="55" y="175" type="curve" smooth="yes"/>
      <point x="55" y="61"/>
      <point x="153" y="-5"/>
      <point x="261" y="-5" type="curve" smooth="yes"/>
      <point x="369" y="-5"/>
      <point x="467" y="61"/>
      <point x="467" y="176" type="curve" smooth="yes"/>
      <point x="467" y="237"/>
      <point x="439" y="293"/>
    </contour>
    <contour>
      <point x="261" y="548" type="curve" smooth="yes"/>
      <point x="324" y="548"/>
      <point x="390" y="519"/>
      <point x="390" y="446" type="curve" smooth="yes"/>
      <point x="390" y="374"/>
      <point x="327" y="353"/>
      <point x="261" y="353" type="curve" smooth="yes"/>
      <point x="195" y="353"/>
      <point x="132" y="374"/>
      <point x="132" y="445" type="curve" smooth="yes"/>
      <point x="132" y="519"/>
      <point x="200" y="548"/>
    </contour>
    <contour>
      <point x="261" y="55" type="curve" smooth="yes"/>
      <point x="191" y="55"/>
      <point x="115" y="93"/>
      <point x="115" y="177" type="curve" smooth="yes"/>
      <point x="115" y="219"/>
      <point x="134" y="293"/>
      <point x="261" y="293" type="curve" smooth="yes"/>
      <point x="388" y="293"/>
      <point x="407" y="219"/>
      <point x="407" y="177" type="curve" smooth="yes"/>
      <point x="407" y="93"/>
      <point x="331" y="55"/>
    </contour>
  </outline>
</glyph>
<glyph name="nine" format="2">
  <advance width="500"/>
  <unicode hex="0039"/>
  <outline>
    <contour>
      <point x="250" y="543" type="curve" smooth="yes"/>
      <point x="330" y="543"/>
      <point x="395" y="478"/>
      <point x="395" y="398" type="curve" smooth="yes"/>
      <point x="395" y="369"/>
      <point x="386" y="342"/>
      <point x="372" y="320" type="curve" smooth="yes"/>
      <point x="365" y="310" type="line" smooth="yes"/>
      <point x="338" y="275"/>
      <point x="297" y="253"/>
      <point x="250" y="253" type="curve" smooth="yes"/>
      <point x="170" y="253"/>
      <point x="105" y="318"/>
      <point x="105" y="398" type="curve" smooth="yes"/>
      <point x="105" y="478"/>
      <point x="170" y="543"/>
    </contour>
    <contour>
      <point x="250" y="193" type="curve" smooth="yes"/>
      <point x="262" y="193"/>
      <point x="273" y="194"/>
      <point x="285" y="196" type="curve"/>
      <point x="147" y="0" type="line"/>
      <point x="220" y="0" type="line"/>
      <point x="421" y="286" type="line" smooth="yes"/>
      <point x="443" y="318"/>
      <point x="455" y="357"/>
      <point x="455" y="398" type="curve" smooth="yes"/>
      <point x="455" y="511"/>
      <point x="363" y="603"/>
      <point x="250" y="603" type="curve" smooth="yes"/>
      <point x="137" y="603"/>
      <point x="45" y="511"/>
      <point x="45" y="398" type="curve" smooth="yes"/>
      <point x="45" y="285"/>
      <point x="137" y="193"/>
    </contour>
  </outline>
</glyph>
<glyph name="colon" format="2">
  <advance width="180"/>
  <unicode hex="003A"/>
  <outline>
    <contour>
      <point x="135" y="360" type="line"/>
      <point x="45" y="360" type="line"/>
      <point x="45" y="454" type="line"/>
      <point x="135" y="454" type="line"/>
    </contour>
    <contour>
      <point x="135" y="79" type="line"/>
      <point x="45" y="79" type="line"/>
      <point x="45" y="173" type="line"/>
      <point x="135" y="173" type="line"/>
    </contour>
  </outline>
</glyph>
<glyph name="semicolon" format="2">
  <advance width="235"/>
  <unicode hex="003B"/>
  <outline>
    <contour>
      <point x="119" y="-22" type="line"/>
      <point x="157" y="31"/>
      <point x="190" y="105"/>
      <point x="190" y="173" type="curve"/>
      <point x="115" y="173" type="line"/>
      <point x="110" y="108"/>
      <point x="85" y="19"/>
      <point x="45" y="-22" type="curve"/>
    </contour>
    <contour>
      <point x="190" y="360" type="line"/>
      <point x="100" y="360" type="line"/>
      <point x="100" y="454" type="line"/>
      <point x="190" y="454" type="line"/>
    </contour>
  </outline>
</glyph>
<glyph name="less" format="2">
  <advance width="309"/>
  <unicode hex="003C"/>
  <outline>
    <contour>
      <point x="284" y="180" type="line"/>
      <point x="81" y="308" type="line"/>
      <point x="284" y="435" type="line"/>
      <point x="284" y="506" type="line"/>
      <point x="25" y="343" type="line"/>
      <point x="25" y="272" type="line"/>
      <point x="284" y="110" type="line"/>
    </contour>
  </outline>
</glyph>
<glyph name="equal" format="2">
  <advance width="450"/>
  <unicode hex="003D"/>
  <outline>
    <contour>
      <point x="405" y="285" type="line"/>
      <point x="45" y="285" type="line"/>
      <point x="45" y="345" type="line"/>
      <point x="405" y="345" type="line"/>
    </contour>
    <contour>
      <point x="405" y="174" type="line"/>
      <point x="45" y="174" type="line"/>
      <point x="45" y="234" type="line"/>
      <point x="405" y="234" type="line"/>
    </contour>
  </outline>
</glyph>
<glyph name="greater" format="2">
  <advance width="329"/>
  <unicode hex="003E"/>
  <outline>
    <contour>
      <point x="45" y="180" type="line"/>
      <point x="247" y="308" type="line"/>
      <point x="45" y="435" type="line"/>
      <point x="45" y="506" type="line"/>
      <point x="304" y="343" type="line"/>
      <point x="304" y="272" type="line"/>
      <point x="45" y="110" type="line"/>
    </contour>
  </outline>
</glyph>
<glyph name="question" format="2">
  <advance width="454"/>
  <unicode hex="003F"/>
  <outline>
    <contour>
      <point x="255" y="173" type="curve"/>
      <point x="195" y="173" type="line"/>
      <point x="195" y="280"/>
      <point x="249" y="335"/>
      <point x="293" y="379" type="curve" smooth="yes"/>
      <point x="329" y="415"/>
      <point x="349" y="437"/>
      <point x="349" y="475" type="curve" smooth="yes"/>
      <point x="349" y="539"/>
      <point x="290" y="574"/>
      <point x="232" y="574" type="curve" smooth="yes"/>
      <point x="157" y="574"/>
      <point x="105" y="512"/>
      <point x="105" y="423" type="curve"/>
      <point x="45" y="423" type="line"/>
      <point x="45" y="535"/>
      <point x="114" y="634"/>
      <point x="232" y="634" type="curve" smooth="yes"/>
      <point x="326" y="634"/>
      <point x="409" y="571"/>
      <point x="409" y="474" type="curve" smooth="yes"/>
      <point x="409" y="410"/>
      <point x="372" y="373"/>
      <point x="336" y="337" type="curve" smooth="yes"/>
      <point x="294" y="295"/>
      <point x="255" y="255"/>
    </contour>
    <contour>
      <point x="270" y="0" type="line"/>
      <point x="180" y="0" type="line"/>
      <point x="180" y="94" type="line"/>
      <point x="270" y="94" type="line"/>
    </contour>
  </outline>
</glyph>
<glyph name="at" format="2">
  <advance width="450"/>
  <unicode hex="0040"/>
  <outline>
    <contour>
      <point x="225" y="197" type="curve" smooth="yes"/>
      <point x="191" y="197"/>
      <point x="163" y="225"/>
      <point x="163" y="259" type="curve" smooth="yes"/>
      <point x="163" y="293"/>
      <point x="191" y="321"/>
      <point x="225" y="321" type="curve" smooth="yes"/>
      <point x="259" y="321"/>
      <point x="286" y="293"/>
      <point x="286" y="259" type="curve" smooth="yes"/>
      <point x="286" y="225"/>
      <point x="259" y="197"/>
    </contour>
    <contour>
      <point x="224" y="439" type="curve" smooth="yes"/>
      <point x="125" y="439"/>
      <point x="45" y="357"/>
      <point x="45" y="259" type="curve" smooth="yes"/>
      <point x="45" y="160"/>
      <point x="126" y="79"/>
      <point x="225" y="79" type="curve"/>
      <point x="226" y="79" type="line"/>
      <point x="249" y="79"/>
      <point x="271" y="84"/>
      <point x="292" y="92" type="curve"/>
      <point x="275" y="134" type="line"/>
      <point x="259" y="127"/>
      <point x="243" y="124"/>
      <point x="226" y="124" type="curve" smooth="yes"/>
      <point x="150" y="124"/>
      <point x="90" y="184"/>
      <point x="90" y="259" type="curve" smooth="yes"/>
      <point x="90" y="334"/>
      <point x="150" y="394"/>
      <point x="224" y="394" type="curve" smooth="yes"/>
      <point x="298" y="394"/>
      <point x="360" y="333"/>
      <point x="360" y="260" type="curve" smooth="yes"/>
      <point x="360" y="233"/>
      <point x="351" y="197"/>
      <point x="340" y="197" type="curve" smooth="yes"/>
      <point x="335" y="197"/>
      <point x="331" y="201"/>
      <point x="331" y="206" type="curve" smooth="yes"/>
      <point x="331" y="259" type="line" smooth="yes"/>
      <point x="331" y="318"/>
      <point x="284" y="365"/>
      <point x="225" y="365" type="curve" smooth="yes"/>
      <point x="166" y="365"/>
      <point x="118" y="318"/>
      <point x="118" y="259" type="curve" smooth="yes"/>
      <point x="118" y="200"/>
      <point x="166" y="153"/>
      <point x="225" y="153" type="curve" smooth="yes"/>
      <point x="251" y="153"/>
      <point x="275" y="162"/>
      <point x="294" y="178" type="curve"/>
      <point x="303" y="163"/>
      <point x="320" y="153"/>
      <point x="338" y="153" type="curve" smooth="yes"/>
      <point x="385" y="153"/>
      <point x="405" y="219"/>
      <point x="405" y="265" type="curve" smooth="yes"/>
      <point x="405" y="360"/>
      <point x="320" y="439"/>
    </contour>
  </outline>
</glyph>
<glyph name="A" format="2">
  <advance width="652"/>
  <unicode hex="0041"/>
  <outline>
    <contour>
      <point x="562" y="0" type="line"/>
      <point x="627" y="0" type="line"/>
      <point x="358" y="683" type="line"/>
      <point x="294" y="683" type="line"/>
      <point x="25" y="0" type="line"/>
      <point x="89" y="0" type="line"/>
      <point x="177" y="223" type="line"/>
      <point x="475" y="223" type="line"/>
    </contour>
    <contour>
      <point x="200" y="283" type="line"/>
      <point x="326" y="602" type="line"/>
      <point x="451" y="283" type="line"/>
    </contour>
  </outline>
</glyph>
<glyph name="B" format="2">
  <advance width="655"/>
  <unicode hex="0042"/>
  <outline>
    <contour>
      <point x="376" y="0" type="curve" smooth="yes"/>
      <point x="85" y="0" type="line"/>
      <point x="85" y="683" type="line"/>
      <point x="376" y="683" type="line" smooth="yes"/>
      <point x="480" y="683"/>
      <point x="580" y="623"/>
      <point x="580" y="513" type="curve" smooth="yes"/>
      <point x="580" y="451"/>
      <point x="549" y="398"/>
      <point x="501" y="366" type="curve"/>
      <point x="567" y="334"/>
      <point x="610" y="272"/>
      <point x="610" y="196" type="curve" smooth="yes"/>
      <point x="610" y="71"/>
      <point x="495" y="0"/>
    </contour>
    <contour>
      <point x="145" y="60" type="line"/>
      <point x="376" y="60" type="line" smooth="yes"/>
      <point x="496" y="60"/>
      <point x="550" y="132"/>
      <point x="550" y="199" type="curve" smooth="yes"/>
      <point x="550" y="264"/>
      <point x="498" y="332"/>
      <point x="380" y="332" type="curve"/>
      <point x="145" y="332" type="line"/>
    </contour>
    <contour>
      <point x="145" y="392" type="line"/>
      <point x="380" y="392" type="line"/>
      <point x="476" y="392"/>
      <point x="520" y="454"/>
      <point x="520" y="509" type="curve" smooth="yes"/>
      <point x="520" y="566"/>
      <point x="475" y="623"/>
      <point x="376" y="623" type="curve" smooth="yes"/>
      <point x="145" y="623" type="line"/>
    </contour>
  </outline>
</glyph>
<glyph name="C" format="2">
  <advance width="696"/>
  <unicode hex="0043"/>
  <outline>
    <contour>
      <point x="578" y="218" type="line"/>
      <point x="543" y="115"/>
      <point x="463" y="55"/>
      <point x="351" y="55" type="curve" smooth="yes"/>
      <point x="215" y="55"/>
      <point x="105" y="184"/>
      <point x="105" y="342" type="curve" smooth="yes"/>
      <point x="105" y="499"/>
      <point x="215" y="628"/>
      <point x="351" y="628" type="curve" smooth="yes"/>
      <point x="463" y="628"/>
      <point x="543" y="568"/>
      <point x="578" y="465" type="curve"/>
      <point x="641" y="465" type="line"/>
      <point x="604" y="599"/>
      <point x="497" y="688"/>
      <point x="359" y="688" type="curve" smooth="yes"/>
      <point x="168" y="688"/>
      <point x="45" y="518"/>
      <point x="45" y="341" type="curve" smooth="yes"/>
      <point x="45" y="163"/>
      <point x="168" y="-5"/>
      <point x="357" y="-5" type="curve" smooth="yes"/>
      <point x="494" y="-5"/>
      <point x="603" y="81"/>
      <point x="641" y="218" type="curve"/>
    </contour>
  </outline>
</glyph>
<glyph name="D" format="2">
  <advance width="690"/>
  <unicode hex="0044"/>
  <outline>
    <contour>
      <point x="297" y="0" type="curve" smooth="yes"/>
      <point x="85" y="0" type="line"/>
      <point x="85" y="684" type="line"/>
      <point x="297" y="684" type="line" smooth="yes"/>
      <point x="500" y="684"/>
      <point x="645" y="542"/>
      <point x="645" y="343" type="curve" smooth="yes"/>
      <point x="645" y="143"/>
      <point x="500" y="0"/>
    </contour>
    <contour>
      <point x="145" y="60" type="line"/>
      <point x="297" y="60" type="line" smooth="yes"/>
      <point x="463" y="60"/>
      <point x="585" y="173"/>
      <point x="585" y="337" type="curve" smooth="yes"/>
      <point x="585" y="478"/>
      <point x="495" y="624"/>
      <point x="297" y="624" type="curve" smooth="yes"/>
      <point x="145" y="624" type="line"/>
    </contour>
  </outline>
  <guideline angle="0" x="0" y="840"/>
</glyph>
<glyph name="E" format="2">
  <advance width="614"/>
  <unicode hex="0045"/>
  <outline>
    <contour>
      <point x="145" y="60" type="line"/>
      <point x="145" y="328" type="line"/>
      <point x="511" y="328" type="line"/>
      <point x="511" y="388" type="line"/>
      <point x="145" y="388" type="line"/>
      <point x="145" y="623" type="line"/>
      <point x="551" y="623" type="line"/>
      <point x="551" y="683" type="line"/>
      <point x="85" y="683" type="line"/>
      <point x="85" y="0" type="line"/>
      <point x="559" y="0" type="line"/>
      <point x="559" y="60" type="line"/>
    </contour>
  </outline>
</glyph>
<glyph name="F" format="2">
  <advance width="552"/>
  <unicode hex="0046"/>
  <outline>
    <contour>
      <point x="527" y="622" type="line"/>
      <point x="527" y="682" type="line"/>
      <point x="85" y="682" type="line"/>
      <point x="85" y="0" type="line"/>
      <point x="145" y="0" type="line"/>
      <point x="145" y="328" type="line"/>
      <point x="487" y="328" type="line"/>
      <point x="487" y="388" type="line"/>
      <point x="145" y="388" type="line"/>
      <point x="145" y="622" type="line"/>
    </contour>
  </outline>
</glyph>
<glyph name="G" format="2">
  <advance width="732"/>
  <unicode hex="0047"/>
  <outline>
    <contour>
      <point x="366" y="289" type="line"/>
      <point x="593" y="289" type="line"/>
      <point x="576" y="144"/>
      <point x="485" y="55"/>
      <point x="351" y="55" type="curve" smooth="yes"/>
      <point x="215" y="55"/>
      <point x="105" y="184"/>
      <point x="105" y="342" type="curve" smooth="yes"/>
      <point x="105" y="499"/>
      <point x="215" y="628"/>
      <point x="351" y="628" type="curve" smooth="yes"/>
      <point x="456" y="628"/>
      <point x="535" y="574"/>
      <point x="573" y="480" type="curve"/>
      <point x="636" y="480" type="line"/>
      <point x="595" y="607"/>
      <point x="489" y="688"/>
      <point x="358" y="688" type="curve" smooth="yes"/>
      <point x="168" y="688"/>
      <point x="45" y="518"/>
      <point x="45" y="340" type="curve" smooth="yes"/>
      <point x="45" y="161"/>
      <point x="169" y="-5"/>
      <point x="361" y="-5" type="curve" smooth="yes"/>
      <point x="539" y="-5"/>
      <point x="648" y="137"/>
      <point x="656" y="318" type="curve" smooth="yes"/>
      <point x="657" y="349" type="line"/>
      <point x="366" y="349" type="line"/>
    </contour>
  </outline>
</glyph>
<glyph name="H" format="2">
  <advance width="705"/>
  <unicode hex="0048"/>
  <outline>
    <contour>
      <point x="560" y="683" type="line"/>
      <point x="560" y="392" type="line"/>
      <point x="145" y="392" type="line"/>
      <point x="145" y="683" type="line"/>
      <point x="85" y="683" type="line"/>
      <point x="85" y="0" type="line"/>
      <point x="145" y="0" type="line"/>
      <point x="145" y="332" type="line"/>
      <point x="560" y="332" type="line"/>
      <point x="560" y="0" type="line"/>
      <point x="620" y="0" type="line"/>
      <point x="620" y="683" type="line"/>
    </contour>
  </outline>
</glyph>
<glyph name="J" format="2">
  <advance width="543"/>
  <unicode hex="004A"/>
  <outline>
    <contour>
      <point x="256" y="-5" type="curve" smooth="yes"/>
      <point x="145" y="-5"/>
      <point x="55" y="85"/>
      <point x="55" y="196" type="curve" smooth="yes"/>
      <point x="55" y="227" type="line"/>
      <point x="115" y="227" type="line"/>
      <point x="115" y="196" type="line" smooth="yes"/>
      <point x="115" y="118"/>
      <point x="178" y="55"/>
      <point x="256" y="55" type="curve" smooth="yes"/>
      <point x="334" y="55"/>
      <point x="398" y="118"/>
      <point x="398" y="196" type="curve" smooth="yes"/>
      <point x="398" y="684" type="line"/>
      <point x="458" y="684" type="line"/>
      <point x="458" y="196" type="line" smooth="yes"/>
      <point x="458" y="85"/>
      <point x="367" y="-5"/>
    </contour>
  </outline>
  <guideline angle="0" x="0" y="684"/>
</glyph>
<glyph name="K" format="2">
  <advance width="681"/>
  <unicode hex="004B"/>
  <outline>
    <contour>
      <point x="656" y="0" type="line"/>
      <point x="324" y="400" type="line"/>
      <point x="634" y="683" type="line"/>
      <point x="545" y="683" type="line"/>
      <point x="145" y="318" type="line"/>
      <point x="145" y="683" type="line"/>
      <point x="85" y="683" type="line"/>
      <point x="85" y="0" type="line"/>
      <point x="145" y="0" type="line"/>
      <point x="145" y="237" type="line"/>
      <point x="280" y="360" type="line"/>
      <point x="578" y="0" type="line"/>
    </contour>
  </outline>
</glyph>
<glyph name="L" format="2">
  <advance width="550"/>
  <unicode hex="004C"/>
  <outline>
    <contour>
      <point x="525" y="0" type="line"/>
      <point x="85" y="0" type="line"/>
      <point x="85" y="683" type="line"/>
      <point x="145" y="683" type="line"/>
      <point x="145" y="60" type="line"/>
      <point x="525" y="60" type="line"/>
    </contour>
  </outline>
</glyph>
<glyph name="M" format="2">
  <advance width="847"/>
  <unicode hex="004D"/>
  <outline>
    <contour>
      <point x="699" y="683" type="line"/>
      <point x="419" y="72" type="line"/>
      <point x="138" y="683" type="line"/>
      <point x="75" y="683" type="line"/>
      <point x="75" y="0" type="line"/>
      <point x="135" y="0" type="line"/>
      <point x="135" y="546" type="line"/>
      <point x="386" y="0" type="line"/>
      <point x="451" y="0" type="line"/>
      <point x="702" y="546" type="line"/>
      <point x="702" y="0" type="line"/>
      <point x="762" y="0" type="line"/>
      <point x="762" y="683" type="line"/>
    </contour>
  </outline>
</glyph>
<glyph name="N" format="2">
  <advance width="694"/>
  <unicode hex="004E"/>
  <outline>
    <contour>
      <point x="609" y="0" type="line"/>
      <point x="609" y="683" type="line"/>
      <point x="549" y="683" type="line"/>
      <point x="549" y="98" type="line"/>
      <point x="151" y="683" type="line"/>
      <point x="85" y="683" type="line"/>
      <point x="85" y="0" type="line"/>
      <point x="145" y="0" type="line"/>
      <point x="145" y="585" type="line"/>
      <point x="543" y="0" type="line"/>
    </contour>
  </outline>
</glyph>
<glyph name="O" format="2">
  <advance width="724"/>
  <unicode hex="004F"/>
  <outline>
    <contour>
      <point x="362" y="-5" type="curve" smooth="yes"/>
      <point x="177" y="-5"/>
      <point x="45" y="159"/>
      <point x="45" y="340" type="curve" smooth="yes"/>
      <point x="45" y="520"/>
      <point x="175" y="688"/>
      <point x="361" y="688" type="curve" smooth="yes"/>
      <point x="547" y="688"/>
      <point x="679" y="520"/>
      <point x="679" y="340" type="curve" smooth="yes"/>
      <point x="679" y="161"/>
      <point x="549" y="-5"/>
    </contour>
    <contour>
      <point x="362" y="628" type="curve" smooth="yes"/>
      <point x="220" y="628"/>
      <point x="105" y="499"/>
      <point x="105" y="340" type="curve" smooth="yes"/>
      <point x="105" y="183"/>
      <point x="220" y="55"/>
      <point x="362" y="55" type="curve" smooth="yes"/>
      <point x="504" y="55"/>
      <point x="619" y="183"/>
      <point x="619" y="340" type="curve" smooth="yes"/>
      <point x="619" y="499"/>
      <point x="504" y="628"/>
    </contour>
  </outline>
</glyph>
<glyph name="P" format="2">
  <advance width="633"/>
  <unicode hex="0050"/>
  <outline>
    <contour>
      <point x="145" y="0" type="line"/>
      <point x="85" y="0" type="line"/>
      <point x="85" y="684" type="line"/>
      <point x="386" y="684" type="line" smooth="yes"/>
      <point x="504" y="684"/>
      <point x="588" y="601"/>
      <point x="588" y="484" type="curve" smooth="yes"/>
      <point x="588" y="367"/>
      <point x="504" y="278"/>
      <point x="386" y="278" type="curve" smooth="yes"/>
      <point x="145" y="278" type="line"/>
    </contour>
    <contour>
      <point x="145" y="338" type="line"/>
      <point x="386" y="338" type="line" smooth="yes"/>
      <point x="483" y="338"/>
      <point x="528" y="414"/>
      <point x="528" y="484" type="curve" smooth="yes"/>
      <point x="528" y="554"/>
      <point x="484" y="624"/>
      <point x="386" y="624" type="curve" smooth="yes"/>
      <point x="145" y="624" type="line"/>
    </contour>
  </outline>
</glyph>
<glyph name="Q" format="2">
  <advance width="724"/>
  <unicode hex="0051"/>
  <outline>
    <contour>
      <point x="679" y="338" type="curve" smooth="yes"/>
      <point x="679" y="519"/>
      <point x="549" y="688"/>
      <point x="363" y="688" type="curve" smooth="yes"/>
      <point x="176" y="688"/>
      <point x="45" y="520"/>
      <point x="45" y="340" type="curve" smooth="yes"/>
      <point x="45" y="161"/>
      <point x="175" y="-5"/>
      <point x="360" y="-5" type="curve" smooth="yes"/>
      <point x="429" y="-5"/>
      <point x="494" y="18"/>
      <point x="547" y="59" type="curve"/>
      <point x="640" y="-11" type="line"/>
      <point x="676" y="37" type="line"/>
      <point x="591" y="101" type="line"/>
      <point x="648" y="165"/>
      <point x="679" y="250"/>
    </contour>
    <contour>
      <point x="362" y="55" type="curve" smooth="yes"/>
      <point x="220" y="55"/>
      <point x="105" y="183"/>
      <point x="105" y="340" type="curve" smooth="yes"/>
      <point x="105" y="499"/>
      <point x="220" y="628"/>
      <point x="362" y="628" type="curve" smooth="yes"/>
      <point x="504" y="628"/>
      <point x="619" y="499"/>
      <point x="619" y="340" type="curve" smooth="yes"/>
      <point x="619" y="261"/>
      <point x="590" y="189"/>
      <point x="542" y="137" type="curve"/>
      <point x="445" y="211" type="line"/>
      <point x="409" y="163" type="line"/>
      <point x="496" y="97" type="line"/>
      <point x="457" y="70"/>
      <point x="411" y="55"/>
    </contour>
  </outline>
</glyph>
<glyph name="R" format="2">
  <advance width="648"/>
  <unicode hex="0052"/>
  <outline>
    <contour>
      <point x="145" y="0" type="line"/>
      <point x="145" y="277" type="line"/>
      <point x="399" y="277" type="line" smooth="yes"/>
      <point x="408" y="277"/>
      <point x="417" y="277"/>
      <point x="425" y="278" type="curve"/>
      <point x="556" y="0" type="line"/>
      <point x="623" y="0" type="line"/>
      <point x="484" y="294" type="line"/>
      <point x="486" y="295" type="line" smooth="yes"/>
      <point x="561" y="327"/>
      <point x="601" y="404"/>
      <point x="601" y="484" type="curve" smooth="yes"/>
      <point x="601" y="601"/>
      <point x="517" y="683"/>
      <point x="399" y="683" type="curve" smooth="yes"/>
      <point x="85" y="683" type="line"/>
      <point x="85" y="0" type="line"/>
    </contour>
    <contour>
      <point x="145" y="623" type="line"/>
      <point x="399" y="623" type="line" smooth="yes"/>
      <point x="497" y="623"/>
      <point x="541" y="553"/>
      <point x="541" y="483" type="curve" smooth="yes"/>
      <point x="541" y="413"/>
      <point x="497" y="337"/>
      <point x="399" y="337" type="curve" smooth="yes"/>
      <point x="145" y="337" type="line"/>
    </contour>
  </outline>
</glyph>
<glyph name="S" format="2">
  <advance width="613"/>
  <unicode hex="0053"/>
  <outline>
    <contour>
      <point x="321" y="-5" type="curve" smooth="yes"/>
      <point x="185" y="-5"/>
      <point x="45" y="71"/>
      <point x="45" y="219" type="curve" smooth="yes"/>
      <point x="45" y="226"/>
      <point x="45" y="233"/>
      <point x="46" y="241" type="curve"/>
      <point x="106" y="235" type="line"/>
      <point x="105" y="230"/>
      <point x="105" y="225"/>
      <point x="105" y="219" type="curve" smooth="yes"/>
      <point x="105" y="106"/>
      <point x="219" y="55"/>
      <point x="320" y="55" type="curve" smooth="yes"/>
      <point x="406" y="55"/>
      <point x="508" y="92"/>
      <point x="508" y="191" type="curve" smooth="yes"/>
      <point x="508" y="276"/>
      <point x="433" y="300"/>
      <point x="310" y="330" type="curve" smooth="yes"/>
      <point x="254" y="344"/>
      <point x="197" y="358"/>
      <point x="152" y="384" type="curve" smooth="yes"/>
      <point x="101" y="413"/>
      <point x="69" y="459"/>
      <point x="69" y="519" type="curve" smooth="yes"/>
      <point x="69" y="640"/>
      <point x="194" y="688"/>
      <point x="304" y="688" type="curve" smooth="yes"/>
      <point x="437" y="688"/>
      <point x="549" y="618"/>
      <point x="549" y="467" type="curve"/>
      <point x="489" y="467" type="line"/>
      <point x="489" y="607"/>
      <point x="369" y="628"/>
      <point x="300" y="628" type="curve" smooth="yes"/>
      <point x="199" y="628"/>
      <point x="129" y="584"/>
      <point x="129" y="514" type="curve" smooth="yes"/>
      <point x="129" y="442"/>
      <point x="203" y="418"/>
      <point x="324" y="389" type="curve" smooth="yes"/>
      <point x="381" y="375"/>
      <point x="439" y="361"/>
      <point x="484" y="335" type="curve" smooth="yes"/>
      <point x="539" y="303"/>
      <point x="568" y="257"/>
      <point x="568" y="193" type="curve" smooth="yes"/>
      <point x="568" y="58"/>
      <point x="445" y="-5"/>
    </contour>
  </outline>
</glyph>
<glyph name="T" format="2">
  <advance width="570"/>
  <unicode hex="0054"/>
  <outline>
    <contour>
      <point x="257" y="0" type="line"/>
      <point x="317" y="0" type="line"/>
      <point x="317" y="623" type="line"/>
      <point x="545" y="623" type="line"/>
      <point x="545" y="683" type="line"/>
      <point x="25" y="683" type="line"/>
      <point x="25" y="623" type="line"/>
      <point x="257" y="623" type="line"/>
    </contour>
  </outline>
</glyph>
<glyph name="U" format="2">
  <advance width="687"/>
  <unicode hex="0055"/>
  <outline>
    <contour>
      <point x="552" y="684" type="line"/>
      <point x="552" y="259" type="line" smooth="yes"/>
      <point x="552" y="147"/>
      <point x="461" y="56"/>
      <point x="349" y="56" type="curve" smooth="yes"/>
      <point x="236" y="56"/>
      <point x="145" y="147"/>
      <point x="145" y="259" type="curve" smooth="yes"/>
      <point x="145" y="684" type="line"/>
      <point x="85" y="684" type="line"/>
      <point x="85" y="259" type="line" smooth="yes"/>
      <point x="85" y="114"/>
      <point x="203" y="-4"/>
      <point x="349" y="-4" type="curve" smooth="yes"/>
      <point x="494" y="-4"/>
      <point x="612" y="114"/>
      <point x="612" y="259" type="curve" smooth="yes"/>
      <point x="612" y="684" type="line"/>
    </contour>
  </outline>
</glyph>
<glyph name="V" format="2">
  <advance width="634"/>
  <unicode hex="0056"/>
  <outline>
    <contour>
      <point x="545" y="683" type="line"/>
      <point x="317" y="84" type="line"/>
      <point x="89" y="683" type="line"/>
      <point x="25" y="683" type="line"/>
      <point x="285" y="0" type="line"/>
      <point x="349" y="0" type="line"/>
      <point x="609" y="683" type="line"/>
    </contour>
  </outline>
</glyph>
<glyph name="W" format="2">
  <advance width="923"/>
  <unicode hex="0057"/>
  <outline>
    <contour>
      <point x="836" y="683" type="line"/>
      <point x="664" y="105" type="line"/>
      <point x="493" y="683" type="line"/>
      <point x="430" y="683" type="line"/>
      <point x="259" y="105" type="line"/>
      <point x="88" y="683" type="line"/>
      <point x="25" y="683" type="line"/>
      <point x="228" y="0" type="line"/>
      <point x="290" y="0" type="line"/>
      <point x="462" y="577" type="line"/>
      <point x="633" y="0" type="line"/>
      <point x="695" y="0" type="line"/>
      <point x="898" y="683" type="line"/>
    </contour>
  </outline>
</glyph>
<glyph name="X" format="2">
  <advance width="630"/>
  <unicode hex="0058"/>
  <outline>
    <contour>
      <point x="586" y="683" type="line"/>
      <point x="512" y="683" type="line"/>
      <point x="315" y="406" type="line"/>
      <point x="118" y="683" type="line"/>
      <point x="44" y="683" type="line"/>
      <point x="278" y="355" type="line"/>
      <point x="25" y="0" type="line"/>
      <point x="99" y="0" type="line"/>
      <point x="315" y="303" type="line"/>
      <point x="531" y="0" type="line"/>
      <point x="605" y="0" type="line"/>
      <point x="352" y="355" type="line"/>
    </contour>
  </outline>
</glyph>
<glyph name="Y" format="2">
  <advance width="621"/>
  <unicode hex="0059"/>
  <outline>
    <contour>
      <point x="528" y="683" type="line"/>
      <point x="312" y="320" type="line"/>
      <point x="95" y="683" type="line"/>
      <point x="25" y="683" type="line"/>
      <point x="282" y="253" type="line"/>
      <point x="282" y="0" type="line"/>
      <point x="342" y="0" type="line"/>
      <point x="342" y="253" type="line"/>
      <point x="596" y="679" type="line"/>
      <point x="589" y="683" type="line"/>
    </contour>
  </outline>
</glyph>
<glyph name="Z" format="2">
  <advance width="629"/>
  <unicode hex="005A"/>
  <outline>
    <contour>
      <point x="551" y="614" type="line"/>
      <point x="551" y="683" type="line"/>
      <point x="79" y="683" type="line"/>
      <point x="79" y="623" type="line"/>
      <point x="483" y="623" type="line"/>
      <point x="55" y="70" type="line"/>
      <point x="55" y="0" type="line"/>
      <point x="574" y="0" type="line"/>
      <point x="574" y="60" type="line"/>
      <point x="123" y="60" type="line"/>
    </contour>
  </outline>
</glyph>
<glyph name="bracketleft" format="2">
  <advance width="270"/>
  <unicode hex="005B"/>
  <outline>
    <contour>
      <point x="245" y="-165" type="line"/>
      <point x="85" y="-165" type="line"/>
      <point x="85" y="683" type="line"/>
      <point x="245" y="683" type="line"/>
      <point x="245" y="623" type="line"/>
      <point x="145" y="623" type="line"/>
      <point x="145" y="-105" type="line"/>
      <point x="245" y="-105" type="line"/>
    </contour>
  </outline>
</glyph>
<glyph name="backslash" format="2">
  <advance width="510"/>
  <unicode hex="005C"/>
  <outline>
    <contour>
      <point x="91" y="683" type="line"/>
      <point x="485" y="-165" type="line"/>
      <point x="419" y="-165" type="line"/>
      <point x="25" y="683" type="line"/>
    </contour>
  </outline>
</glyph>
<glyph name="bracketright" format="2">
  <advance width="269"/>
  <unicode hex="005D"/>
  <outline>
    <contour>
      <point x="184" y="-165" type="line"/>
      <point x="25" y="-165" type="line"/>
      <point x="25" y="-105" type="line"/>
      <point x="124" y="-105" type="line"/>
      <point x="124" y="623" type="line"/>
      <point x="25" y="623" type="line"/>
      <point x="25" y="683" type="line"/>
      <point x="184" y="683" type="line"/>
    </contour>
  </outline>
</glyph>
<glyph name="asciicircum" format="2">
  <advance width="446"/>
  <unicode hex="005E"/>
  <outline>
    <contour>
      <point x="187" y="603" type="line"/>
      <point x="25" y="344" type="line"/>
      <point x="96" y="344" type="line"/>
      <point x="223" y="547" type="line"/>
      <point x="350" y="344" type="line"/>
      <point x="421" y="344" type="line"/>
      <point x="258" y="603" type="line"/>
    </contour>
  </outline>
</glyph>
<glyph name="underscore" format="2">
  <advance width="410"/>
  <unicode hex="005F"/>
  <outline>
    <contour>
      <point x="385" y="0" type="line"/>
      <point x="25" y="0" type="line"/>
      <point x="25" y="60" type="line"/>
      <point x="385" y="60" type="line"/>
    </contour>
  </outline>
</glyph>
<glyph name="grave" format="2">
  <advance width="178"/>
  <unicode hex="0060"/>
  <outline>
    <contour>
      <point x="95" y="443" type="line"/>
      <point x="124" y="493"/>
      <point x="153" y="575"/>
      <point x="153" y="630" type="curve"/>
      <point x="93" y="630" type="line"/>
      <point x="93" y="584"/>
      <point x="54" y="480"/>
      <point x="25" y="443" type="curve"/>
    </contour>
  </outline>
</glyph>
<glyph name="a" format="2">
  <advance width="585"/>
  <unicode hex="0061"/>
  <outline>
    <contour>
      <point x="440" y="518" type="line"/>
      <point x="440" y="437" type="line"/>
      <point x="435" y="443" type="line" smooth="yes"/>
      <point x="395" y="492"/>
      <point x="336" y="523"/>
      <point x="271" y="523" type="curve" smooth="yes"/>
      <point x="134" y="523"/>
      <point x="45" y="388"/>
      <point x="45" y="258" type="curve" smooth="yes"/>
      <point x="45" y="128"/>
      <point x="132" y="-5"/>
      <point x="270" y="-5" type="curve" smooth="yes"/>
      <point x="339" y="-5"/>
      <point x="399" y="28"/>
      <point x="440" y="79" type="curve"/>
      <point x="440" y="0" type="line"/>
      <point x="500" y="0" type="line"/>
      <point x="500" y="518" type="line"/>
    </contour>
    <contour>
      <point x="273" y="55" type="curve" smooth="yes"/>
      <point x="180" y="55"/>
      <point x="105" y="146"/>
      <point x="105" y="258" type="curve" smooth="yes"/>
      <point x="105" y="371"/>
      <point x="180" y="463"/>
      <point x="272" y="463" type="curve" smooth="yes"/>
      <point x="365" y="463"/>
      <point x="440" y="371"/>
      <point x="440" y="258" type="curve" smooth="yes"/>
      <point x="440" y="146"/>
      <point x="365" y="55"/>
    </contour>
  </outline>
</glyph>
<glyph name="b" format="2">
  <advance width="585"/>
  <unicode hex="0062"/>
  <outline>
    <contour>
      <point x="315" y="523" type="curve" smooth="yes"/>
      <point x="246" y="523"/>
      <point x="186" y="489"/>
      <point x="145" y="437" type="curve"/>
      <point x="145" y="683" type="line"/>
      <point x="85" y="683" type="line"/>
      <point x="85" y="0" type="line"/>
      <point x="145" y="0" type="line"/>
      <point x="145" y="79" type="line"/>
      <point x="150" y="73" type="line" smooth="yes"/>
      <point x="193" y="23"/>
      <point x="251" y="-5"/>
      <point x="314" y="-5" type="curve" smooth="yes"/>
      <point x="451" y="-5"/>
      <point x="540" y="127"/>
      <point x="540" y="257" type="curve" smooth="yes"/>
      <point x="540" y="387"/>
      <point x="452" y="523"/>
    </contour>
    <contour>
      <point x="313" y="55" type="curve" smooth="yes"/>
      <point x="220" y="55"/>
      <point x="145" y="146"/>
      <point x="145" y="258" type="curve" smooth="yes"/>
      <point x="145" y="371"/>
      <point x="220" y="463"/>
      <point x="313" y="463" type="curve" smooth="yes"/>
      <point x="405" y="463"/>
      <point x="480" y="371"/>
      <point x="480" y="258" type="curve" smooth="yes"/>
      <point x="480" y="146"/>
      <point x="405" y="55"/>
    </contour>
  </outline>
</glyph>
<glyph name="c" format="2">
  <advance width="551"/>
  <unicode hex="0063"/>
  <outline>
    <contour>
      <point x="434" y="172" type="line"/>
      <point x="411" y="97"/>
      <point x="355" y="55"/>
      <point x="285" y="55" type="curve" smooth="yes"/>
      <point x="182" y="55"/>
      <point x="105" y="146"/>
      <point x="105" y="258" type="curve" smooth="yes"/>
      <point x="105" y="371"/>
      <point x="182" y="463"/>
      <point x="284" y="463" type="curve" smooth="yes"/>
      <point x="353" y="463"/>
      <point x="409" y="421"/>
      <point x="433" y="346" type="curve"/>
      <point x="495" y="346" type="line"/>
      <point x="469" y="451"/>
      <point x="389" y="523"/>
      <point x="282" y="523" type="curve" smooth="yes"/>
      <point x="138" y="523"/>
      <point x="45" y="392"/>
      <point x="45" y="258" type="curve" smooth="yes"/>
      <point x="45" y="122"/>
      <point x="138" y="-5"/>
      <point x="282" y="-5" type="curve" smooth="yes"/>
      <point x="391" y="-5"/>
      <point x="470" y="67"/>
      <point x="496" y="172" type="curve"/>
    </contour>
  </outline>
</glyph>
<glyph name="d" format="2">
  <advance width="586"/>
  <unicode hex="0064"/>
  <outline>
    <contour>
      <point x="501" y="683" type="line"/>
      <point x="441" y="683" type="line"/>
      <point x="441" y="438" type="line"/>
      <point x="436" y="443" type="line" smooth="yes"/>
      <point x="395" y="492"/>
      <point x="337" y="523"/>
      <point x="271" y="523" type="curve" smooth="yes"/>
      <point x="135" y="523"/>
      <point x="45" y="388"/>
      <point x="45" y="258" type="curve" smooth="yes"/>
      <point x="45" y="128"/>
      <point x="133" y="-5"/>
      <point x="271" y="-5" type="curve" smooth="yes"/>
      <point x="339" y="-5"/>
      <point x="399" y="28"/>
      <point x="440" y="79" type="curve"/>
      <point x="440" y="0" type="line"/>
      <point x="500" y="0" type="line"/>
    </contour>
    <contour>
      <point x="273" y="55" type="curve" smooth="yes"/>
      <point x="180" y="55"/>
      <point x="105" y="146"/>
      <point x="105" y="258" type="curve" smooth="yes"/>
      <point x="105" y="371"/>
      <point x="180" y="463"/>
      <point x="273" y="463" type="curve" smooth="yes"/>
      <point x="361" y="463"/>
      <point x="434" y="379"/>
      <point x="441" y="274" type="curve"/>
      <point x="441" y="242" type="line"/>
      <point x="434" y="138"/>
      <point x="361" y="55"/>
    </contour>
  </outline>
</glyph>
<glyph name="e" format="2">
  <advance width="555"/>
  <unicode hex="0065"/>
  <outline>
    <contour>
      <point x="430" y="165" type="line"/>
      <point x="406" y="95"/>
      <point x="352" y="55"/>
      <point x="283" y="55" type="curve" smooth="yes"/>
      <point x="187" y="55"/>
      <point x="116" y="131"/>
      <point x="106" y="232" type="curve"/>
      <point x="500" y="232" type="line"/>
      <point x="500" y="263" type="line" smooth="yes"/>
      <point x="500" y="393"/>
      <point x="413" y="523"/>
      <point x="274" y="523" type="curve" smooth="yes"/>
      <point x="132" y="523"/>
      <point x="45" y="387"/>
      <point x="45" y="254" type="curve" smooth="yes"/>
      <point x="45" y="110"/>
      <point x="147" y="-5"/>
      <point x="283" y="-5" type="curve" smooth="yes"/>
      <point x="384" y="-5"/>
      <point x="464" y="60"/>
      <point x="493" y="165" type="curve"/>
    </contour>
    <contour>
      <point x="275" y="463" type="curve" smooth="yes"/>
      <point x="359" y="463"/>
      <point x="425" y="393"/>
      <point x="438" y="292" type="curve"/>
      <point x="107" y="292" type="line"/>
      <point x="121" y="389"/>
      <point x="190" y="463"/>
    </contour>
  </outline>
</glyph>
<glyph name="f" format="2">
  <advance width="354"/>
  <unicode hex="0066"/>
  <outline>
    <contour>
      <point x="266" y="623" type="curve" smooth="yes"/>
      <point x="299" y="623" type="line"/>
      <point x="299" y="683" type="line"/>
      <point x="266" y="683" type="line" smooth="yes"/>
      <point x="196" y="683"/>
      <point x="140" y="627"/>
      <point x="140" y="557" type="curve" smooth="yes"/>
      <point x="140" y="518" type="line"/>
      <point x="55" y="518" type="line"/>
      <point x="55" y="458" type="line"/>
      <point x="140" y="458" type="line"/>
      <point x="140" y="0" type="line"/>
      <point x="200" y="0" type="line"/>
      <point x="200" y="458" type="line"/>
      <point x="285" y="458" type="line"/>
      <point x="285" y="518" type="line"/>
      <point x="200" y="518" type="line"/>
      <point x="200" y="557" type="line" smooth="yes"/>
      <point x="200" y="594"/>
      <point x="230" y="623"/>
    </contour>
  </outline>
</glyph>
<glyph name="g" format="2">
  <advance width="585"/>
  <unicode hex="0067"/>
  <outline>
    <contour>
      <point x="450" y="518" type="line"/>
      <point x="450" y="439" type="line"/>
      <point x="445" y="445" type="line" smooth="yes"/>
      <point x="402" y="495"/>
      <point x="344" y="523"/>
      <point x="281" y="523" type="curve" smooth="yes"/>
      <point x="144" y="523"/>
      <point x="55" y="391"/>
      <point x="55" y="261" type="curve" smooth="yes"/>
      <point x="55" y="131"/>
      <point x="142" y="-5"/>
      <point x="280" y="-5" type="curve" smooth="yes"/>
      <point x="349" y="-5"/>
      <point x="409" y="29"/>
      <point x="450" y="81" type="curve"/>
      <point x="450" y="57" type="line" smooth="yes"/>
      <point x="450" y="-52"/>
      <point x="389" y="-115"/>
      <point x="293" y="-115" type="curve" smooth="yes"/>
      <point x="242" y="-115"/>
      <point x="190" y="-97"/>
      <point x="168" y="-81" type="curve"/>
      <point x="132" y="-129" type="line"/>
      <point x="167" y="-155"/>
      <point x="232" y="-175"/>
      <point x="293" y="-175" type="curve" smooth="yes"/>
      <point x="428" y="-175"/>
      <point x="510" y="-76"/>
      <point x="510" y="57" type="curve" smooth="yes"/>
      <point x="510" y="518" type="line"/>
    </contour>
    <contour>
      <point x="283" y="55" type="curve" smooth="yes"/>
      <point x="190" y="55"/>
      <point x="115" y="147"/>
      <point x="115" y="260" type="curve" smooth="yes"/>
      <point x="115" y="372"/>
      <point x="190" y="463"/>
      <point x="285" y="463" type="curve" smooth="yes"/>
      <point x="388" y="463"/>
      <point x="450" y="356"/>
      <point x="450" y="257" type="curve" smooth="yes"/>
      <point x="450" y="147"/>
      <point x="375" y="55"/>
    </contour>
  </outline>
  <guideline angle="0" x="0" y="540"/>
</glyph>
<glyph name="h" format="2">
  <advance width="581"/>
  <unicode hex="0068"/>
  <outline>
    <contour>
      <point x="311" y="518" type="curve" smooth="yes"/>
      <point x="250" y="518"/>
      <point x="186" y="492"/>
      <point x="145" y="444" type="curve"/>
      <point x="145" y="683" type="line"/>
      <point x="85" y="683" type="line"/>
      <point x="85" y="0" type="line"/>
      <point x="145" y="0" type="line"/>
      <point x="145" y="250" type="line" smooth="yes"/>
      <point x="145" y="431"/>
      <point x="253" y="458"/>
      <point x="317" y="458" type="curve" smooth="yes"/>
      <point x="371" y="458"/>
      <point x="446" y="420"/>
      <point x="446" y="335" type="curve" smooth="yes"/>
      <point x="446" y="0" type="line"/>
      <point x="506" y="0" type="line"/>
      <point x="506" y="335" type="line" smooth="yes"/>
      <point x="506" y="442"/>
      <point x="417" y="518"/>
    </contour>
  </outline>
</glyph>
<glyph name="i" format="2">
  <advance width="230"/>
  <unicode hex="0069"/>
  <outline>
    <contour>
      <point x="85" y="0" type="line"/>
      <point x="145" y="0" type="line"/>
      <point x="145" y="518" type="line"/>
      <point x="85" y="518" type="line"/>
    </contour>
    <contour>
      <point x="85" y="683" type="line"/>
      <point x="85" y="584" type="line"/>
      <point x="145" y="584" type="line"/>
      <point x="145" y="683" type="line"/>
    </contour>
  </outline>
</glyph>
<glyph name="j" format="2">
  <advance width="284"/>
  <unicode hex="006A"/>
  <outline>
    <contour>
      <point x="139" y="683" type="line"/>
      <point x="139" y="585" type="line"/>
      <point x="199" y="585" type="line"/>
      <point x="199" y="683" type="line"/>
    </contour>
    <contour>
      <point x="139" y="-41" type="line" smooth="yes"/>
      <point x="139" y="-76"/>
      <point x="110" y="-105"/>
      <point x="75" y="-105" type="curve" smooth="yes"/>
      <point x="55" y="-105" type="line"/>
      <point x="55" y="-165" type="line"/>
      <point x="75" y="-165" type="line" smooth="yes"/>
      <point x="143" y="-165"/>
      <point x="199" y="-109"/>
      <point x="199" y="-41" type="curve" smooth="yes"/>
      <point x="199" y="518" type="line"/>
      <point x="139" y="518" type="line"/>
    </contour>
  </outline>
</glyph>
<glyph name="k" format="2">
  <advance width="594"/>
  <unicode hex="006B"/>
  <outline>
    <contour>
      <point x="521" y="0" type="line"/>
      <point x="289" y="306" type="line"/>
      <point x="539" y="518" type="line"/>
      <point x="446" y="518" type="line"/>
      <point x="145" y="262" type="line"/>
      <point x="145" y="683" type="line"/>
      <point x="85" y="683" type="line"/>
      <point x="85" y="0" type="line"/>
      <point x="145" y="0" type="line"/>
      <point x="145" y="183" type="line"/>
      <point x="244" y="267" type="line"/>
      <point x="446" y="0" type="line"/>
    </contour>
  </outline>
</glyph>
<glyph name="l" format="2">
  <advance width="230"/>
  <unicode hex="006C"/>
  <outline>
    <contour>
      <point x="145" y="0" type="line"/>
      <point x="85" y="0" type="line"/>
      <point x="85" y="683" type="line"/>
      <point x="145" y="683" type="line"/>
    </contour>
  </outline>
</glyph>
<glyph name="m" format="2">
  <advance width="865"/>
  <unicode hex="006D"/>
  <outline>
    <contour>
      <point x="606" y="523" type="curve" smooth="yes"/>
      <point x="536" y="523"/>
      <point x="473" y="484"/>
      <point x="438" y="425" type="curve"/>
      <point x="409" y="484"/>
      <point x="350" y="523"/>
      <point x="283" y="523" type="curve" smooth="yes"/>
      <point x="226" y="523"/>
      <point x="171" y="496"/>
      <point x="135" y="452" type="curve"/>
      <point x="135" y="518" type="line"/>
      <point x="75" y="518" type="line"/>
      <point x="75" y="0" type="line"/>
      <point x="135" y="0" type="line"/>
      <point x="135" y="246" type="line"/>
      <point x="135" y="442"/>
      <point x="242" y="463"/>
      <point x="281" y="463" type="curve" smooth="yes"/>
      <point x="334" y="463"/>
      <point x="398" y="423"/>
      <point x="398" y="334" type="curve" smooth="yes"/>
      <point x="398" y="0" type="line"/>
      <point x="458" y="0" type="line"/>
      <point x="458" y="246" type="line"/>
      <point x="458" y="442"/>
      <point x="565" y="463"/>
      <point x="603" y="463" type="curve" smooth="yes"/>
      <point x="656" y="463"/>
      <point x="720" y="423"/>
      <point x="720" y="334" type="curve" smooth="yes"/>
      <point x="720" y="0" type="line"/>
      <point x="780" y="0" type="line"/>
      <point x="780" y="334" type="line" smooth="yes"/>
      <point x="780" y="436"/>
      <point x="711" y="523"/>
    </contour>
  </outline>
</glyph>
<glyph name="n" format="2">
  <advance width="591"/>
  <unicode hex="006E"/>
  <outline>
    <contour>
      <point x="311" y="523" type="curve" smooth="yes"/>
      <point x="250" y="523"/>
      <point x="186" y="497"/>
      <point x="145" y="449" type="curve"/>
      <point x="145" y="518" type="line"/>
      <point x="85" y="518" type="line"/>
      <point x="85" y="0" type="line"/>
      <point x="145" y="0" type="line"/>
      <point x="145" y="253" type="line" smooth="yes"/>
      <point x="145" y="436"/>
      <point x="253" y="463"/>
      <point x="317" y="463" type="curve" smooth="yes"/>
      <point x="371" y="463"/>
      <point x="446" y="424"/>
      <point x="446" y="339" type="curve" smooth="yes"/>
      <point x="446" y="0" type="line"/>
      <point x="506" y="0" type="line"/>
      <point x="506" y="339" type="line" smooth="yes"/>
      <point x="506" y="446"/>
      <point x="417" y="523"/>
    </contour>
  </outline>
</glyph>
<glyph name="o" format="2">
  <advance width="545"/>
  <unicode hex="006F"/>
  <outline>
    <contour>
      <point x="273" y="-5" type="curve" smooth="yes"/>
      <point x="134" y="-5"/>
      <point x="45" y="126"/>
      <point x="45" y="257" type="curve" smooth="yes"/>
      <point x="45" y="388"/>
      <point x="133" y="523"/>
      <point x="272" y="523" type="curve" smooth="yes"/>
      <point x="411" y="523"/>
      <point x="500" y="388"/>
      <point x="500" y="258" type="curve" smooth="yes"/>
      <point x="500" y="128"/>
      <point x="413" y="-5"/>
    </contour>
    <contour>
      <point x="273" y="463" type="curve" smooth="yes"/>
      <point x="180" y="463"/>
      <point x="105" y="371"/>
      <point x="105" y="258" type="curve" smooth="yes"/>
      <point x="105" y="146"/>
      <point x="180" y="55"/>
      <point x="273" y="55" type="curve" smooth="yes"/>
      <point x="365" y="55"/>
      <point x="440" y="146"/>
      <point x="440" y="258" type="curve" smooth="yes"/>
      <point x="440" y="371"/>
      <point x="365" y="463"/>
    </contour>
  </outline>
</glyph>
<glyph name="p" format="2">
  <advance width="585"/>
  <unicode hex="0070"/>
  <outline>
    <contour>
      <point x="314" y="523" type="curve" smooth="yes"/>
      <point x="247" y="523"/>
      <point x="187" y="491"/>
      <point x="145" y="439" type="curve"/>
      <point x="145" y="518" type="line"/>
      <point x="85" y="518" type="line"/>
      <point x="85" y="-165" type="line"/>
      <point x="145" y="-165" type="line"/>
      <point x="145" y="81" type="line"/>
      <point x="150" y="75" type="line" smooth="yes"/>
      <point x="190" y="26"/>
      <point x="249" y="-5"/>
      <point x="314" y="-5" type="curve" smooth="yes"/>
      <point x="451" y="-5"/>
      <point x="540" y="130"/>
      <point x="540" y="260" type="curve" smooth="yes"/>
      <point x="540" y="390"/>
      <point x="453" y="523"/>
    </contour>
    <contour>
      <point x="313" y="55" type="curve" smooth="yes"/>
      <point x="220" y="55"/>
      <point x="145" y="147"/>
      <point x="145" y="260" type="curve" smooth="yes"/>
      <point x="145" y="372"/>
      <point x="220" y="463"/>
      <point x="313" y="463" type="curve" smooth="yes"/>
      <point x="405" y="463"/>
      <point x="480" y="372"/>
      <point x="480" y="260" type="curve" smooth="yes"/>
      <point x="480" y="147"/>
      <point x="405" y="55"/>
    </contour>
  </outline>
</glyph>
<glyph name="q" format="2">
  <advance width="585"/>
  <unicode hex="0071"/>
  <outline>
    <contour>
      <point x="271" y="523" type="curve" smooth="yes"/>
      <point x="338" y="523"/>
      <point x="398" y="491"/>
      <point x="440" y="439" type="curve"/>
      <point x="440" y="518" type="line"/>
      <point x="500" y="518" type="line"/>
      <point x="500" y="-165" type="line"/>
      <point x="440" y="-165" type="line"/>
      <point x="440" y="81" type="line"/>
      <point x="435" y="75" type="line" smooth="yes"/>
      <point x="395" y="26"/>
      <point x="336" y="-5"/>
      <point x="271" y="-5" type="curve" smooth="yes"/>
      <point x="134" y="-5"/>
      <point x="45" y="130"/>
      <point x="45" y="260" type="curve" smooth="yes"/>
      <point x="45" y="390"/>
      <point x="132" y="523"/>
    </contour>
    <contour>
      <point x="272" y="55" type="curve" smooth="yes"/>
      <point x="365" y="55"/>
      <point x="440" y="147"/>
      <point x="440" y="260" type="curve" smooth="yes"/>
      <point x="440" y="372"/>
      <point x="365" y="463"/>
      <point x="272" y="463" type="curve" smooth="yes"/>
      <point x="180" y="463"/>
      <point x="105" y="372"/>
      <point x="105" y="260" type="curve" smooth="yes"/>
      <point x="105" y="147"/>
      <point x="180" y="55"/>
    </contour>
  </outline>
</glyph>
<glyph name="r" format="2">
  <advance width="378"/>
  <unicode hex="0072"/>
  <outline>
    <contour>
      <point x="145" y="441" type="curve"/>
      <point x="145" y="518" type="line"/>
      <point x="85" y="518" type="line"/>
      <point x="85" y="0" type="line"/>
      <point x="145" y="0" type="line"/>
      <point x="145" y="244" type="line" smooth="yes"/>
      <point x="145" y="430"/>
      <point x="256" y="458"/>
      <point x="323" y="458" type="curve"/>
      <point x="323" y="518" type="line"/>
      <point x="255" y="518"/>
      <point x="189" y="493"/>
    </contour>
  </outline>
  <guideline angle="0" x="0" y="518"/>
</glyph>
<glyph name="s" format="2">
  <advance width="498"/>
  <unicode hex="0073"/>
  <outline>
    <contour>
      <point x="259" y="-4" type="curve" smooth="yes"/>
      <point x="156" y="-4"/>
      <point x="55" y="57"/>
      <point x="55" y="169" type="curve" smooth="yes"/>
      <point x="55" y="175"/>
      <point x="55" y="180"/>
      <point x="56" y="186" type="curve"/>
      <point x="116" y="181" type="line"/>
      <point x="115" y="177"/>
      <point x="115" y="173"/>
      <point x="115" y="170" type="curve" smooth="yes"/>
      <point x="115" y="93"/>
      <point x="189" y="56"/>
      <point x="258" y="56" type="curve" smooth="yes"/>
      <point x="317" y="56"/>
      <point x="383" y="81"/>
      <point x="383" y="149" type="curve" smooth="yes"/>
      <point x="383" y="204"/>
      <point x="340" y="221"/>
      <point x="249" y="244" type="curve" smooth="yes"/>
      <point x="171" y="264"/>
      <point x="72" y="290"/>
      <point x="72" y="390" type="curve" smooth="yes"/>
      <point x="72" y="483"/>
      <point x="161" y="524"/>
      <point x="247" y="524" type="curve" smooth="yes"/>
      <point x="349" y="524"/>
      <point x="429" y="466"/>
      <point x="429" y="353" type="curve"/>
      <point x="369" y="353" type="line"/>
      <point x="369" y="450"/>
      <point x="290" y="464"/>
      <point x="244" y="464" type="curve" smooth="yes"/>
      <point x="178" y="464"/>
      <point x="132" y="435"/>
      <point x="132" y="387" type="curve" smooth="yes"/>
      <point x="132" y="342"/>
      <point x="175" y="325"/>
      <point x="264" y="302" type="curve" smooth="yes"/>
      <point x="348" y="281"/>
      <point x="443" y="256"/>
      <point x="443" y="150" type="curve" smooth="yes"/>
      <point x="443" y="49"/>
      <point x="355" y="-4"/>
    </contour>
  </outline>
</glyph>
<glyph name="t" format="2">
  <advance width="345"/>
  <unicode hex="0074"/>
  <outline>
    <contour>
      <point x="266" y="60" type="line" smooth="yes"/>
      <point x="228" y="60"/>
      <point x="198" y="90"/>
      <point x="198" y="128" type="curve" smooth="yes"/>
      <point x="198" y="458" type="line"/>
      <point x="285" y="458" type="line"/>
      <point x="285" y="518" type="line"/>
      <point x="198" y="518" type="line"/>
      <point x="198" y="683" type="line"/>
      <point x="138" y="683" type="line"/>
      <point x="138" y="518" type="line"/>
      <point x="55" y="518" type="line"/>
      <point x="55" y="458" type="line"/>
      <point x="138" y="458" type="line"/>
      <point x="138" y="128" type="line" smooth="yes"/>
      <point x="138" y="57"/>
      <point x="195" y="0"/>
      <point x="266" y="0" type="curve" smooth="yes"/>
      <point x="290" y="0" type="line"/>
      <point x="290" y="60" type="line"/>
    </contour>
  </outline>
</glyph>
<glyph name="u" format="2">
  <advance width="561"/>
  <unicode hex="0075"/>
  <outline>
    <contour>
      <point x="416" y="518" type="line"/>
      <point x="416" y="265" type="line" smooth="yes"/>
      <point x="416" y="82"/>
      <point x="308" y="55"/>
      <point x="244" y="55" type="curve" smooth="yes"/>
      <point x="190" y="55"/>
      <point x="115" y="94"/>
      <point x="115" y="179" type="curve" smooth="yes"/>
      <point x="115" y="518" type="line"/>
      <point x="55" y="518" type="line"/>
      <point x="55" y="179" type="line" smooth="yes"/>
      <point x="55" y="71"/>
      <point x="143" y="-5"/>
      <point x="250" y="-5" type="curve" smooth="yes"/>
      <point x="311" y="-5"/>
      <point x="375" y="21"/>
      <point x="416" y="69" type="curve"/>
      <point x="416" y="0" type="line"/>
      <point x="476" y="0" type="line"/>
      <point x="476" y="518" type="line"/>
    </contour>
  </outline>
</glyph>
<glyph name="v" format="2">
  <advance width="500"/>
  <unicode hex="0076"/>
  <outline>
    <contour>
      <point x="411" y="518" type="line"/>
      <point x="250" y="94" type="line"/>
      <point x="89" y="518" type="line"/>
      <point x="26" y="518" type="line"/>
      <point x="25" y="517" type="line"/>
      <point x="222" y="0" type="line"/>
      <point x="278" y="0" type="line"/>
      <point x="475" y="517" type="line"/>
      <point x="474" y="518" type="line"/>
    </contour>
  </outline>
</glyph>
<glyph name="w" format="2">
  <advance width="767"/>
  <unicode hex="0077"/>
  <outline>
    <contour>
      <point x="679" y="518" type="line"/>
      <point x="547" y="108" type="line"/>
      <point x="415" y="518" type="line"/>
      <point x="352" y="518" type="line"/>
      <point x="220" y="108" type="line"/>
      <point x="88" y="518" type="line"/>
      <point x="25" y="518" type="line"/>
      <point x="192" y="0" type="line"/>
      <point x="248" y="0" type="line"/>
      <point x="384" y="421" type="line"/>
      <point x="519" y="0" type="line"/>
      <point x="575" y="0" type="line"/>
      <point x="742" y="518" type="line"/>
    </contour>
  </outline>
</glyph>
<glyph name="x" format="2">
  <advance width="531"/>
  <unicode hex="0078"/>
  <outline>
    <contour>
      <point x="265" y="319" type="line"/>
      <point x="116" y="518" type="line"/>
      <point x="40" y="518" type="line"/>
      <point x="228" y="269" type="line"/>
      <point x="25" y="0" type="line"/>
      <point x="100" y="0" type="line"/>
      <point x="265" y="219" type="line"/>
      <point x="431" y="0" type="line"/>
      <point x="506" y="0" type="line"/>
      <point x="303" y="269" type="line"/>
      <point x="490" y="518" type="line"/>
      <point x="415" y="518" type="line"/>
    </contour>
  </outline>
</glyph>
<glyph name="y" format="2">
  <advance width="502"/>
  <unicode hex="0079"/>
  <outline>
    <contour>
      <point x="413" y="518" type="line"/>
      <point x="251" y="93" type="line"/>
      <point x="89" y="518" type="line"/>
      <point x="25" y="518" type="line"/>
      <point x="219" y="8" type="line"/>
      <point x="191" y="-65" type="line" smooth="yes"/>
      <point x="182" y="-89"/>
      <point x="159" y="-105"/>
      <point x="133" y="-105" type="curve"/>
      <point x="87" y="-105" type="line"/>
      <point x="87" y="-165" type="line"/>
      <point x="133" y="-165" type="line"/>
      <point x="184" y="-165"/>
      <point x="229" y="-134"/>
      <point x="247" y="-86" type="curve" smooth="yes"/>
      <point x="477" y="518" type="line"/>
    </contour>
  </outline>
</glyph>
<glyph name="z" format="2">
  <advance width="527"/>
  <unicode hex="007A"/>
  <outline>
    <contour>
      <point x="469" y="466" type="line"/>
      <point x="469" y="519" type="line"/>
      <point x="89" y="519" type="line"/>
      <point x="89" y="459" type="line"/>
      <point x="386" y="459" type="line"/>
      <point x="55" y="53" type="line"/>
      <point x="55" y="1" type="line"/>
      <point x="472" y="1" type="line"/>
      <point x="472" y="61" type="line"/>
      <point x="138" y="61" type="line"/>
    </contour>
  </outline>
</glyph>
<glyph name="braceleft" format="2">
  <advance width="258"/>
  <unicode hex="007B"/>
  <outline>
    <contour>
      <point x="174" y="443" type="curve" smooth="yes"/>
      <point x="174" y="567" type="line" smooth="yes"/>
      <point x="174" y="598"/>
      <point x="200" y="623"/>
      <point x="233" y="623" type="curve"/>
      <point x="233" y="683" type="line"/>
      <point x="167" y="683"/>
      <point x="114" y="631"/>
      <point x="114" y="567" type="curve" smooth="yes"/>
      <point x="114" y="443" type="line" smooth="yes"/>
      <point x="114" y="332"/>
      <point x="94" y="289"/>
      <point x="45" y="289" type="curve"/>
      <point x="45" y="229" type="line"/>
      <point x="94" y="229"/>
      <point x="114" y="186"/>
      <point x="114" y="76" type="curve" smooth="yes"/>
      <point x="114" y="-49" type="line" smooth="yes"/>
      <point x="114" y="-113"/>
      <point x="167" y="-165"/>
      <point x="233" y="-165" type="curve"/>
      <point x="233" y="-105" type="line"/>
      <point x="200" y="-105"/>
      <point x="174" y="-80"/>
      <point x="174" y="-49" type="curve" smooth="yes"/>
      <point x="174" y="76" type="line" smooth="yes"/>
      <point x="174" y="136"/>
      <point x="171" y="215"/>
      <point x="124" y="259" type="curve"/>
      <point x="172" y="303"/>
      <point x="174" y="383"/>
    </contour>
  </outline>
</glyph>
<glyph name="bar" format="2">
  <advance width="230"/>
  <unicode hex="007C"/>
  <outline>
    <contour>
      <point x="145" y="-165" type="line"/>
      <point x="85" y="-165" type="line"/>
      <point x="85" y="683" type="line"/>
      <point x="145" y="683" type="line"/>
    </contour>
  </outline>
</glyph>
<glyph name="braceright" format="2">
  <advance width="258"/>
  <unicode hex="007D"/>
  <outline>
    <contour>
      <point x="144" y="443" type="curve"/>
      <point x="144" y="567" type="line" smooth="yes"/>
      <point x="144" y="631"/>
      <point x="91" y="683"/>
      <point x="25" y="683" type="curve"/>
      <point x="25" y="623" type="line"/>
      <point x="58" y="623"/>
      <point x="84" y="598"/>
      <point x="84" y="567" type="curve" smooth="yes"/>
      <point x="84" y="443" type="line" smooth="yes"/>
      <point x="84" y="382"/>
      <point x="87" y="305"/>
      <point x="133" y="259" type="curve"/>
      <point x="87" y="213"/>
      <point x="84" y="137"/>
      <point x="84" y="76" type="curve" smooth="yes"/>
      <point x="84" y="-49" type="line" smooth="yes"/>
      <point x="84" y="-80"/>
      <point x="58" y="-105"/>
      <point x="25" y="-105" type="curve"/>
      <point x="25" y="-165" type="line"/>
      <point x="91" y="-165"/>
      <point x="144" y="-113"/>
      <point x="144" y="-49" type="curve" smooth="yes"/>
      <point x="144" y="76" type="line" smooth="yes"/>
      <point x="144" y="186"/>
      <point x="163" y="229"/>
      <point x="213" y="229" type="curve"/>
      <point x="213" y="289" type="line"/>
      <point x="163" y="289"/>
      <point x="144" y="332"/>
    </contour>
  </outline>
</glyph>
<glyph name="dieresis" format="2">
  <advance width="285"/>
  <unicode hex="00A8"/>
  <outline>
    <contour>
      <point x="260" y="657.965" type="line"/>
      <point x="170" y="657.965" type="line"/>
      <point x="170" y="752" type="line"/>
      <point x="260" y="752" type="line"/>
    </contour>
    <contour>
      <point x="115" y="657.965" type="line"/>
      <point x="25" y="657.965" type="line"/>
      <point x="25" y="752" type="line"/>
      <point x="115" y="752" type="line"/>
    </contour>
  </outline>
</glyph>
<glyph name="copyright" format="2">
  <advance width="450"/>
  <unicode hex="00A9"/>
  <outline>
    <contour>
      <point x="229" y="153" type="curve" smooth="yes"/>
      <point x="170" y="153"/>
      <point x="122" y="200"/>
      <point x="122" y="259" type="curve" smooth="yes"/>
      <point x="122" y="318"/>
      <point x="170" y="365"/>
      <point x="229" y="365" type="curve" smooth="yes"/>
      <point x="270" y="365"/>
      <point x="308" y="341"/>
      <point x="325" y="304" type="curve"/>
      <point x="284" y="285" type="line"/>
      <point x="274" y="307"/>
      <point x="252" y="320"/>
      <point x="229" y="320" type="curve" smooth="yes"/>
      <point x="195" y="320"/>
      <point x="167" y="293"/>
      <point x="167" y="259" type="curve" smooth="yes"/>
      <point x="167" y="225"/>
      <point x="195" y="198"/>
      <point x="229" y="198" type="curve" smooth="yes"/>
      <point x="252" y="198"/>
      <point x="274" y="211"/>
      <point x="284" y="232" type="curve"/>
      <point x="325" y="212" type="line"/>
      <point x="306" y="175"/>
      <point x="271" y="153"/>
    </contour>
    <contour>
      <point x="225" y="394" type="curve" smooth="yes"/>
      <point x="150" y="394"/>
      <point x="90" y="333"/>
      <point x="90" y="259" type="curve" smooth="yes"/>
      <point x="90" y="185"/>
      <point x="150" y="124"/>
      <point x="225" y="124" type="curve" smooth="yes"/>
      <point x="299" y="124"/>
      <point x="360" y="185"/>
      <point x="360" y="259" type="curve" smooth="yes"/>
      <point x="360" y="333"/>
      <point x="299" y="394"/>
    </contour>
    <contour>
      <point x="225" y="79" type="curve" smooth="yes"/>
      <point x="126" y="79"/>
      <point x="45" y="160"/>
      <point x="45" y="259" type="curve" smooth="yes"/>
      <point x="45" y="358"/>
      <point x="126" y="439"/>
      <point x="225" y="439" type="curve" smooth="yes"/>
      <point x="324" y="439"/>
      <point x="405" y="358"/>
      <point x="405" y="259" type="curve" smooth="yes"/>
      <point x="405" y="160"/>
      <point x="324" y="79"/>
    </contour>
  </outline>
</glyph>
<glyph name="macron" format="2">
  <advance width="410"/>
  <unicode hex="00AF"/>
  <outline>
    <contour>
      <point x="385" y="624" type="line"/>
      <point x="25" y="624" type="line"/>
      <point x="25" y="684" type="line"/>
      <point x="385" y="684" type="line"/>
    </contour>
  </outline>
</glyph>
<glyph name="tilde" format="2">
  <advance width="361"/>
  <unicode hex="02DC"/>
  <outline>
    <contour>
      <point x="336" y="229" type="line"/>
      <point x="318" y="220"/>
      <point x="296" y="212"/>
      <point x="271" y="212" type="curve" smooth="yes"/>
      <point x="238" y="212"/>
      <point x="203" y="226"/>
      <point x="169" y="240" type="curve" smooth="yes"/>
      <point x="141" y="252"/>
      <point x="112" y="264"/>
      <point x="91" y="264" type="curve" smooth="yes"/>
      <point x="55" y="264"/>
      <point x="29" y="235"/>
      <point x="25" y="230" type="curve"/>
      <point x="25" y="306" type="line"/>
      <point x="43" y="316"/>
      <point x="65" y="324"/>
      <point x="91" y="324" type="curve"/>
      <point x="124" y="324"/>
      <point x="159" y="310"/>
      <point x="192" y="296" type="curve" smooth="yes"/>
      <point x="220" y="284"/>
      <point x="250" y="272"/>
      <point x="271" y="272" type="curve" smooth="yes"/>
      <point x="304" y="272"/>
      <point x="329" y="298"/>
      <point x="336" y="305" type="curve"/>
    </contour>
  </outline>
</glyph>
<glyph name="alef" format="2">
  <advance width="617"/>
  <unicode hex="05D0"/>
  <outline>
    <contour>
      <point x="441" y="154" type="line"/>
      <point x="518" y="264"/>
      <point x="531" y="388"/>
      <point x="531" y="519" type="curve"/>
      <point x="471" y="519" type="line"/>
      <point x="471" y="407"/>
      <point x="463" y="298"/>
      <point x="400" y="201" type="curve"/>
      <point x="128" y="519" type="line"/>
      <point x="49" y="519" type="line"/>
      <point x="158" y="392" type="line"/>
      <point x="81" y="285"/>
      <point x="45" y="129"/>
      <point x="45" y="0" type="curve"/>
      <point x="105" y="0" type="line"/>
      <point x="105" y="116"/>
      <point x="133" y="247"/>
      <point x="198" y="345" type="curve"/>
      <point x="494" y="0" type="line"/>
      <point x="571" y="0" type="line"/>
      <point x="572" y="1" type="line"/>
    </contour>
  </outline>
</glyph>
<glyph name="bet" format="2">
  <advance width="516"/>
  <unicode hex="05D1"/>
  <outline>
    <contour>
      <point x="422" y="60" type="line"/>
      <point x="422" y="300" type="line" smooth="yes"/>
      <point x="422" y="420"/>
      <point x="325" y="518"/>
      <point x="204" y="518" type="curve" smooth="yes"/>
      <point x="45" y="518" type="line"/>
      <point x="45" y="458" type="line"/>
      <point x="204" y="458" type="line" smooth="yes"/>
      <point x="291" y="458"/>
      <point x="362" y="387"/>
      <point x="362" y="300" type="curve" smooth="yes"/>
      <point x="362" y="60" type="line"/>
      <point x="45" y="60" type="line"/>
      <point x="45" y="0" type="line"/>
      <point x="471" y="0" type="line"/>
      <point x="471" y="60" type="line"/>
    </contour>
  </outline>
</glyph>
<glyph name="gimel" format="2">
  <advance width="412"/>
  <unicode hex="05D2"/>
  <outline>
    <contour>
      <point x="270" y="125" type="curve"/>
      <point x="296" y="0" type="line"/>
      <point x="357" y="0" type="line"/>
      <point x="249" y="518" type="line"/>
      <point x="94" y="518" type="line"/>
      <point x="94" y="458" type="line"/>
      <point x="200" y="458" type="line"/>
      <point x="245" y="242" type="line"/>
      <point x="245" y="146"/>
      <point x="149" y="60"/>
      <point x="45" y="60" type="curve"/>
      <point x="45" y="0" type="line"/>
      <point x="134" y="0"/>
      <point x="222" y="50"/>
    </contour>
  </outline>
</glyph>
<glyph name="dalet" format="2">
  <advance width="455"/>
  <unicode hex="05D3"/>
  <outline>
    <contour>
      <point x="430" y="518" type="line"/>
      <point x="25" y="518" type="line"/>
      <point x="25" y="458" type="line"/>
      <point x="318" y="458" type="line"/>
      <point x="318" y="0" type="line"/>
      <point x="378" y="0" type="line"/>
      <point x="378" y="458" type="line"/>
      <point x="430" y="458" type="line"/>
    </contour>
  </outline>
</glyph>
<glyph name="he" format="2">
  <advance width="547"/>
  <unicode hex="05D4"/>
  <outline>
    <contour>
      <point x="472" y="0" type="line"/>
      <point x="412" y="0" type="line"/>
      <point x="412" y="301" type="line" smooth="yes"/>
      <point x="412" y="387"/>
      <point x="342" y="458"/>
      <point x="255" y="458" type="curve" smooth="yes"/>
      <point x="55" y="458" type="line"/>
      <point x="55" y="518" type="line"/>
      <point x="255" y="518" type="line" smooth="yes"/>
      <point x="375" y="518"/>
      <point x="472" y="421"/>
      <point x="472" y="301" type="curve" smooth="yes"/>
    </contour>
    <contour>
      <point x="119" y="0" type="line"/>
      <point x="59" y="0" type="line"/>
      <point x="59" y="297" type="line"/>
      <point x="119" y="297" type="line"/>
    </contour>
  </outline>
</glyph>
<glyph name="vav" format="2">
  <advance width="230"/>
  <unicode hex="05D5"/>
  <outline>
    <contour>
      <point x="145" y="0" type="line"/>
      <point x="85" y="0" type="line"/>
      <point x="85" y="518" type="line"/>
      <point x="145" y="518" type="line"/>
    </contour>
  </outline>
</glyph>
<glyph name="zayin" format="2">
  <advance width="347"/>
  <unicode hex="05D6"/>
  <outline>
    <contour>
      <point x="251" y="0" type="line"/>
      <point x="191" y="0" type="line"/>
      <point x="191" y="292" type="line" smooth="yes"/>
      <point x="191" y="407"/>
      <point x="107" y="458"/>
      <point x="25" y="458" type="curve"/>
      <point x="25" y="518" type="line"/>
      <point x="302" y="518" type="line"/>
      <point x="302" y="458" type="line"/>
      <point x="184" y="458" type="line"/>
      <point x="228" y="417"/>
      <point x="251" y="359"/>
      <point x="251" y="292" type="curve" smooth="yes"/>
    </contour>
  </outline>
</glyph>
<glyph name="het" format="2">
  <advance width="583"/>
  <unicode hex="05D7"/>
  <outline>
    <contour>
      <point x="508" y="0" type="line"/>
      <point x="448" y="0" type="line"/>
      <point x="448" y="301" type="line" smooth="yes"/>
      <point x="448" y="387"/>
      <point x="377" y="458"/>
      <point x="291" y="458" type="curve" smooth="yes"/>
      <point x="145" y="458" type="line"/>
      <point x="145" y="0" type="line"/>
      <point x="85" y="0" type="line"/>
      <point x="85" y="518" type="line"/>
      <point x="291" y="518" type="line" smooth="yes"/>
      <point x="411" y="518"/>
      <point x="508" y="421"/>
      <point x="508" y="301" type="curve" smooth="yes"/>
    </contour>
  </outline>
</glyph>
<glyph name="tet" format="2">
  <advance width="599"/>
  <unicode hex="05D8"/>
  <outline>
    <contour>
      <point x="314" y="-5" type="curve" smooth="yes"/>
      <point x="161" y="-5"/>
      <point x="75" y="131"/>
      <point x="75" y="272" type="curve" smooth="yes"/>
      <point x="75" y="518" type="line"/>
      <point x="135" y="518" type="line"/>
      <point x="135" y="272" type="line" smooth="yes"/>
      <point x="135" y="164"/>
      <point x="195" y="55"/>
      <point x="314" y="55" type="curve" smooth="yes"/>
      <point x="430" y="55"/>
      <point x="484" y="159"/>
      <point x="484" y="260" type="curve" smooth="yes"/>
      <point x="484" y="352"/>
      <point x="438" y="458"/>
      <point x="311" y="458" type="curve"/>
      <point x="311" y="518" type="line"/>
      <point x="461" y="518"/>
      <point x="544" y="402"/>
      <point x="544" y="263" type="curve" smooth="yes"/>
      <point x="544" y="123"/>
      <point x="461" y="-5"/>
    </contour>
  </outline>
</glyph>
<glyph name="yod" format="2">
  <advance width="170"/>
  <unicode hex="05D9"/>
  <outline>
    <contour>
      <point x="115" y="298" type="line"/>
      <point x="55" y="298" type="line"/>
      <point x="55" y="518" type="line"/>
      <point x="115" y="518" type="line"/>
    </contour>
  </outline>
</glyph>
<glyph name="uni05DA" format="2">
  <advance width="453"/>
  <unicode hex="05DA"/>
  <outline>
    <contour>
      <point x="378" y="-165" type="line"/>
      <point x="318" y="-165" type="line"/>
      <point x="318" y="301" type="line" smooth="yes"/>
      <point x="318" y="387"/>
      <point x="247" y="458"/>
      <point x="161" y="458" type="curve" smooth="yes"/>
      <point x="25" y="458" type="line"/>
      <point x="25" y="518" type="line"/>
      <point x="161" y="518" type="line" smooth="yes"/>
      <point x="280" y="518"/>
      <point x="378" y="421"/>
      <point x="378" y="301" type="curve" smooth="yes"/>
    </contour>
  </outline>
</glyph>
<glyph name="kaf" format="2">
  <advance width="471"/>
  <unicode hex="05DB"/>
  <outline>
    <contour>
      <point x="177" y="0" type="curve" smooth="yes"/>
      <point x="25" y="0" type="line"/>
      <point x="25" y="60" type="line"/>
      <point x="177" y="60" type="line" smooth="yes"/>
      <point x="276" y="60"/>
      <point x="356" y="149"/>
      <point x="356" y="258" type="curve" smooth="yes"/>
      <point x="356" y="368"/>
      <point x="276" y="458"/>
      <point x="177" y="458" type="curve" smooth="yes"/>
      <point x="25" y="458" type="line"/>
      <point x="25" y="518" type="line"/>
      <point x="177" y="518" type="line" smooth="yes"/>
      <point x="316" y="518"/>
      <point x="416" y="393"/>
      <point x="416" y="258" type="curve" smooth="yes"/>
      <point x="416" y="123"/>
      <point x="317" y="0"/>
    </contour>
  </outline>
</glyph>
<glyph name="uni05DD" format="2">
  <advance width="578"/>
  <unicode hex="05DD"/>
  <outline>
    <contour>
      <point x="503" y="0" type="line"/>
      <point x="85" y="0" type="line"/>
      <point x="85" y="518" type="line"/>
      <point x="285" y="518" type="line" smooth="yes"/>
      <point x="405" y="518"/>
      <point x="503" y="421"/>
      <point x="503" y="301" type="curve" smooth="yes"/>
    </contour>
    <contour>
      <point x="145" y="60" type="line"/>
      <point x="443" y="60" type="line"/>
      <point x="443" y="301" type="line" smooth="yes"/>
      <point x="443" y="387"/>
      <point x="372" y="458"/>
      <point x="285" y="458" type="curve" smooth="yes"/>
      <point x="145" y="458" type="line"/>
    </contour>
  </outline>
</glyph>
<glyph name="mem" format="2">
  <advance width="628"/>
  <unicode hex="05DE"/>
  <outline>
    <contour>
      <point x="318" y="523" type="curve" smooth="yes"/>
      <point x="250" y="523"/>
      <point x="188" y="496"/>
      <point x="145" y="443" type="curve"/>
      <point x="145" y="519" type="line"/>
      <point x="85" y="519" type="line"/>
      <point x="85" y="1" type="line"/>
      <point x="145" y="1" type="line"/>
      <point x="145" y="262" type="line" smooth="yes"/>
      <point x="145" y="362"/>
      <point x="199" y="463"/>
      <point x="318" y="463" type="curve" smooth="yes"/>
      <point x="438" y="463"/>
      <point x="493" y="359"/>
      <point x="493" y="262" type="curve" smooth="yes"/>
      <point x="493" y="162"/>
      <point x="433" y="60"/>
      <point x="318" y="60" type="curve"/>
      <point x="318" y="0" type="line"/>
      <point x="464" y="0"/>
      <point x="553" y="125"/>
      <point x="553" y="264" type="curve" smooth="yes"/>
      <point x="553" y="403"/>
      <point x="464" y="523"/>
    </contour>
  </outline>
</glyph>
<glyph name="uni05DF" format="2">
  <advance width="230"/>
  <unicode hex="05DF"/>
  <outline>
    <contour>
      <point x="145" y="-165" type="line"/>
      <point x="85" y="-165" type="line"/>
      <point x="85" y="518" type="line"/>
      <point x="145" y="518" type="line"/>
    </contour>
  </outline>
</glyph>
<glyph name="nun" format="2">
  <advance width="301"/>
  <unicode hex="05E0"/>
  <outline>
    <contour>
      <point x="77" y="0" type="curve" smooth="yes"/>
      <point x="25" y="0" type="line"/>
      <point x="25" y="60" type="line"/>
      <point x="77" y="60" type="line" smooth="yes"/>
      <point x="136" y="60"/>
      <point x="184" y="108"/>
      <point x="184" y="167" type="curve" smooth="yes"/>
      <point x="184" y="458" type="line"/>
      <point x="102" y="458" type="line"/>
      <point x="102" y="518" type="line"/>
      <point x="244" y="518" type="line"/>
      <point x="244" y="167" type="line" smooth="yes"/>
      <point x="244" y="75"/>
      <point x="169" y="0"/>
    </contour>
  </outline>
</glyph>
<glyph name="samekh" format="2">
  <advance width="599"/>
  <unicode hex="05E1"/>
  <outline>
    <contour>
      <point x="314" y="-5" type="curve" smooth="yes"/>
      <point x="161" y="-5"/>
      <point x="75" y="131"/>
      <point x="75" y="272" type="curve" smooth="yes"/>
      <point x="75" y="518" type="line"/>
      <point x="311" y="518" type="line" smooth="yes"/>
      <point x="461" y="518"/>
      <point x="544" y="402"/>
      <point x="544" y="263" type="curve" smooth="yes"/>
      <point x="544" y="124"/>
      <point x="461" y="-5"/>
    </contour>
    <contour>
      <point x="135" y="458" type="line"/>
      <point x="135" y="272" type="line" smooth="yes"/>
      <point x="135" y="164"/>
      <point x="195" y="55"/>
      <point x="314" y="55" type="curve" smooth="yes"/>
      <point x="430" y="55"/>
      <point x="484" y="159"/>
      <point x="484" y="260" type="curve" smooth="yes"/>
      <point x="484" y="352"/>
      <point x="438" y="458"/>
      <point x="311" y="458" type="curve" smooth="yes"/>
    </contour>
  </outline>
</glyph>
<glyph name="ayin" format="2">
  <advance width="510"/>
  <unicode hex="05E2"/>
  <outline>
    <contour>
      <point x="405" y="518" type="line"/>
      <point x="405" y="431" type="line" smooth="yes"/>
      <point x="405" y="272"/>
      <point x="367" y="125"/>
      <point x="214" y="53" type="curve"/>
      <point x="106" y="518" type="line"/>
      <point x="44" y="518" type="line"/>
      <point x="158" y="31" type="line"/>
      <point x="119" y="19"/>
      <point x="75" y="10"/>
      <point x="25" y="6" type="curve"/>
      <point x="31" y="-54" type="line"/>
      <point x="322" y="-27"/>
      <point x="465" y="125"/>
      <point x="465" y="431" type="curve" smooth="yes"/>
      <point x="465" y="518" type="line"/>
    </contour>
  </outline>
</glyph>
<glyph name="uni05E3" format="2">
  <advance width="495"/>
  <unicode hex="05E3"/>
  <outline>
    <contour>
      <point x="420" y="-165" type="line"/>
      <point x="360" y="-165" type="line"/>
      <point x="360" y="301" type="line" smooth="yes"/>
      <point x="360" y="387"/>
      <point x="289" y="458"/>
      <point x="202" y="458" type="curve" smooth="yes"/>
      <point x="115" y="458" type="line"/>
      <point x="115" y="247" type="line"/>
      <point x="55" y="247" type="line"/>
      <point x="55" y="518" type="line"/>
      <point x="202" y="518" type="line" smooth="yes"/>
      <point x="322" y="518"/>
      <point x="420" y="421"/>
      <point x="420" y="301" type="curve" smooth="yes"/>
    </contour>
  </outline>
</glyph>
<glyph name="pe" format="2">
  <advance width="568"/>
  <unicode hex="05E4"/>
  <outline>
    <contour>
      <point x="278" y="523" type="curve" smooth="yes"/>
      <point x="133" y="523"/>
      <point x="45" y="404"/>
      <point x="45" y="263" type="curve" smooth="yes"/>
      <point x="45" y="246"/>
      <point x="46" y="231"/>
      <point x="48" y="218" type="curve"/>
      <point x="109" y="218" type="line"/>
      <point x="107" y="230"/>
      <point x="105" y="246"/>
      <point x="105" y="264" type="curve" smooth="yes"/>
      <point x="105" y="362"/>
      <point x="159" y="463"/>
      <point x="278" y="463" type="curve" smooth="yes"/>
      <point x="398" y="463"/>
      <point x="453" y="359"/>
      <point x="453" y="262" type="curve" smooth="yes"/>
      <point x="453" y="162"/>
      <point x="393" y="60"/>
      <point x="278" y="60" type="curve" smooth="yes"/>
      <point x="158" y="60" type="line"/>
      <point x="158" y="0" type="line"/>
      <point x="278" y="0" type="line" smooth="yes"/>
      <point x="424" y="0"/>
      <point x="513" y="125"/>
      <point x="513" y="264" type="curve" smooth="yes"/>
      <point x="513" y="403"/>
      <point x="424" y="523"/>
    </contour>
  </outline>
</glyph>
<glyph name="uni05E5" format="2">
  <advance width="553"/>
  <unicode hex="05E5"/>
  <outline>
    <contour>
      <point x="513" y="518" type="line"/>
      <point x="443" y="518" type="line"/>
      <point x="273" y="231" type="line"/>
      <point x="109" y="518" type="line"/>
      <point x="40" y="518" type="line"/>
      <point x="430" y="-165" type="line"/>
      <point x="499" y="-165" type="line"/>
      <point x="307" y="171" type="line"/>
    </contour>
  </outline>
</glyph>
<glyph name="tsadi" format="2">
  <advance width="540"/>
  <unicode hex="05E6"/>
  <outline>
    <contour>
      <point x="48" y="0" type="line"/>
      <point x="495" y="0" type="line"/>
      <point x="495" y="58" type="line"/>
      <point x="479" y="68"/>
      <point x="415" y="109"/>
      <point x="339" y="178" type="curve"/>
      <point x="416" y="274"/>
      <point x="470" y="397"/>
      <point x="490" y="518" type="curve"/>
      <point x="429" y="518" type="line"/>
      <point x="410" y="411"/>
      <point x="363" y="305"/>
      <point x="296" y="220" type="curve"/>
      <point x="225" y="291"/>
      <point x="144" y="392"/>
      <point x="90" y="518" type="curve"/>
      <point x="25" y="518" type="line"/>
      <point x="97" y="335"/>
      <point x="231" y="178"/>
      <point x="387" y="60" type="curve"/>
      <point x="48" y="60" type="line"/>
    </contour>
  </outline>
</glyph>
<glyph name="qof" format="2">
  <advance width="527"/>
  <unicode hex="05E7"/>
  <outline>
    <contour>
      <point x="50" y="-165" type="line"/>
      <point x="110" y="-165" type="line"/>
      <point x="110" y="357" type="line"/>
      <point x="50" y="357" type="line"/>
    </contour>
    <contour>
      <point x="45" y="518" type="line"/>
      <point x="45" y="458" type="line"/>
      <point x="392" y="458" type="line"/>
      <point x="392" y="275" type="line" smooth="yes"/>
      <point x="392" y="154"/>
      <point x="310" y="60"/>
      <point x="206" y="60" type="curve"/>
      <point x="206" y="0" type="line"/>
      <point x="355" y="0"/>
      <point x="452" y="135"/>
      <point x="452" y="275" type="curve" smooth="yes"/>
      <point x="452" y="518" type="line"/>
    </contour>
  </outline>
</glyph>
<glyph name="resh" format="2">
  <advance width="462"/>
  <unicode hex="05E8"/>
  <outline>
    <contour>
      <point x="387" y="0" type="line"/>
      <point x="327" y="0" type="line"/>
      <point x="327" y="301" type="line" smooth="yes"/>
      <point x="327" y="387"/>
      <point x="256" y="458"/>
      <point x="169" y="458" type="curve" smooth="yes"/>
      <point x="25" y="458" type="line"/>
      <point x="25" y="518" type="line"/>
      <point x="169" y="518" type="line" smooth="yes"/>
      <point x="289" y="518"/>
      <point x="387" y="421"/>
      <point x="387" y="301" type="curve" smooth="yes"/>
    </contour>
  </outline>
</glyph>
<glyph name="shin" format="2">
  <advance width="638"/>
  <unicode hex="05E9"/>
  <outline>
    <contour>
      <point x="503" y="518" type="line"/>
      <point x="503" y="256" type="line" smooth="yes"/>
      <point x="503" y="146"/>
      <point x="399" y="60"/>
      <point x="304" y="60" type="curve" smooth="yes"/>
      <point x="169" y="60" type="line"/>
      <point x="156" y="154" type="line"/>
      <point x="255" y="162"/>
      <point x="350" y="205"/>
      <point x="350" y="317" type="curve" smooth="yes"/>
      <point x="350" y="518" type="line"/>
      <point x="290" y="518" type="line"/>
      <point x="290" y="317" type="line" smooth="yes"/>
      <point x="290" y="237"/>
      <point x="215" y="218"/>
      <point x="148" y="214" type="curve"/>
      <point x="106" y="518" type="line"/>
      <point x="45" y="518" type="line"/>
      <point x="117" y="0" type="line"/>
      <point x="304" y="0" type="line" smooth="yes"/>
      <point x="443" y="0"/>
      <point x="563" y="125"/>
      <point x="563" y="256" type="curve" smooth="yes"/>
      <point x="563" y="518" type="line"/>
    </contour>
  </outline>
  <guideline angle="0" x="0" y="-3980"/>
</glyph>
<glyph name="tav" format="2">
  <advance width="572"/>
  <unicode hex="05EA"/>
  <outline>
    <contour>
      <point x="280" y="518" type="curve" smooth="yes"/>
      <point x="47" y="518" type="line"/>
      <point x="47" y="458" type="line"/>
      <point x="102" y="458" type="line"/>
      <point x="102" y="60" type="line"/>
      <point x="25" y="60" type="line"/>
      <point x="25" y="0" type="line"/>
      <point x="162" y="0" type="line"/>
      <point x="162" y="458" type="line"/>
      <point x="280" y="458" type="line" smooth="yes"/>
      <point x="367" y="458"/>
      <point x="437" y="387"/>
      <point x="437" y="301" type="curve" smooth="yes"/>
      <point x="437" y="0" type="line"/>
      <point x="497" y="0" type="line"/>
      <point x="497" y="301" type="line" smooth="yes"/>
      <point x="497" y="421"/>
      <point x="400" y="518"/>
    </contour>
  </outline>
</glyph>
<glyph name="endash" format="2">
  <advance width="410"/>
  <unicode hex="2013"/>
  <outline>
    <contour>
      <point x="385" y="327" type="line"/>
      <point x="25" y="327" type="line"/>
      <point x="25" y="387" type="line"/>
      <point x="385" y="387" type="line"/>
    </contour>
  </outline>
</glyph>
<glyph name="emdash" format="2">
  <advance width="500"/>
  <unicode hex="2014"/>
  <outline>
    <contour>
      <point x="475" y="327" type="line"/>
      <point x="25" y="327" type="line"/>
      <point x="25" y="387" type="line"/>
      <point x="475" y="387" type="line"/>
    </contour>
  </outline>
</glyph>
<glyph name="quoteleft" format="2">
  <advance width="178"/>
  <unicode hex="2018"/>
  <outline>
    <contour>
      <point x="83" y="630" type="line"/>
      <point x="54" y="580"/>
      <point x="25" y="498"/>
      <point x="25" y="443" type="curve"/>
      <point x="85" y="443" type="line"/>
      <point x="85" y="489"/>
      <point x="124" y="593"/>
      <point x="153" y="630" type="curve"/>
    </contour>
  </outline>
</glyph>
<glyph name="quotedblleft" format="2">
  <advance width="282"/>
  <unicode hex="201C"/>
  <outline>
    <contour>
      <point x="83" y="583" type="line"/>
      <point x="54" y="531"/>
      <point x="25" y="453"/>
      <point x="25" y="395" type="curve"/>
      <point x="85" y="395" type="line"/>
      <point x="85" y="441"/>
      <point x="123" y="545"/>
      <point x="153" y="583" type="curve"/>
    </contour>
    <contour>
      <point x="187" y="583" type="line"/>
      <point x="158" y="531"/>
      <point x="129" y="453"/>
      <point x="129" y="395" type="curve"/>
      <point x="189" y="395" type="line"/>
      <point x="189" y="441"/>
      <point x="227" y="545"/>
      <point x="257" y="583" type="curve"/>
    </contour>
  </outline>
</glyph>
<glyph name="quotedblright" format="2">
  <advance width="282"/>
  <unicode hex="201D"/>
  <outline>
    <contour>
      <point x="199" y="395" type="line"/>
      <point x="228" y="447"/>
      <point x="257" y="525"/>
      <point x="257" y="583" type="curve"/>
      <point x="197" y="583" type="line"/>
      <point x="197" y="537"/>
      <point x="159" y="433"/>
      <point x="129" y="395" type="curve"/>
    </contour>
    <contour>
      <point x="95" y="395" type="line"/>
      <point x="124" y="447"/>
      <point x="153" y="525"/>
      <point x="153" y="583" type="curve"/>
      <point x="93" y="583" type="line"/>
      <point x="93" y="537"/>
      <point x="55" y="433"/>
      <point x="25" y="395" type="curve"/>
    </contour>
  </outline>
</glyph>
<glyph name="quotedblbase" format="2">
  <advance width="282"/>
  <unicode hex="201E"/>
  <outline>
    <contour>
      <point x="199" y="-85" type="line"/>
      <point x="228" y="-33"/>
      <point x="257" y="45"/>
      <point x="257" y="103" type="curve"/>
      <point x="197" y="103" type="line"/>
      <point x="197" y="57"/>
      <point x="159" y="-47"/>
      <point x="129" y="-85" type="curve"/>
    </contour>
    <contour>
      <point x="95" y="-85" type="line"/>
      <point x="124" y="-33"/>
      <point x="153" y="45"/>
      <point x="153" y="103" type="curve"/>
      <point x="93" y="103" type="line"/>
      <point x="93" y="57"/>
      <point x="55" y="-47"/>
      <point x="25" y="-85" type="curve"/>
    </contour>
  </outline>
</glyph>
<glyph name="uni20AA" format="2">
  <advance width="651"/>
  <unicode hex="20AA"/>
  <outline>
    <contour>
      <point x="338" y="0" type="curve" smooth="yes"/>
      <point x="227" y="0" type="line"/>
      <point x="227" y="326" type="line"/>
      <point x="287" y="326" type="line"/>
      <point x="287" y="60" type="line"/>
      <point x="338" y="60" type="line" smooth="yes"/>
      <point x="425" y="60"/>
      <point x="516" y="130"/>
      <point x="516" y="217" type="curve"/>
      <point x="516" y="518" type="line"/>
      <point x="576" y="518" type="line"/>
      <point x="576" y="217" type="line"/>
      <point x="576" y="97"/>
      <point x="458" y="0"/>
    </contour>
    <contour>
      <point x="145" y="0" type="line"/>
      <point x="85" y="0" type="line"/>
      <point x="85" y="518" type="line"/>
      <point x="219" y="518" type="line"/>
      <point x="339" y="518"/>
      <point x="436" y="420"/>
      <point x="436" y="300" type="curve" smooth="yes"/>
      <point x="436" y="191" type="line"/>
      <point x="376" y="191" type="line"/>
      <point x="376" y="300" type="line" smooth="yes"/>
      <point x="376" y="387"/>
      <point x="306" y="458"/>
      <point x="219" y="458" type="curve" smooth="yes"/>
      <point x="145" y="458" type="line"/>
    </contour>
  </outline>
</glyph>
<glyph name="Euro" format="2">
  <advance width="581"/>
  <unicode hex="20AC"/>
  <outline>
    <contour>
      <point x="474" y="172" type="line"/>
      <point x="453" y="103"/>
      <point x="399" y="55"/>
      <point x="324" y="55" type="curve" smooth="yes"/>
      <point x="215" y="55"/>
      <point x="145" y="155"/>
      <point x="145" y="258" type="curve" smooth="yes"/>
      <point x="145" y="361"/>
      <point x="213" y="463"/>
      <point x="323" y="463" type="curve" smooth="yes"/>
      <point x="398" y="463"/>
      <point x="451" y="415"/>
      <point x="473" y="346" type="curve"/>
      <point x="535" y="346" type="line"/>
      <point x="510" y="449"/>
      <point x="430" y="523"/>
      <point x="322" y="523" type="curve" smooth="yes"/>
      <point x="179" y="523"/>
      <point x="85" y="393"/>
      <point x="85" y="258" type="curve" smooth="yes"/>
      <point x="85" y="122"/>
      <point x="178" y="-5"/>
      <point x="322" y="-5" type="curve" smooth="yes"/>
      <point x="431" y="-5"/>
      <point x="510" y="68"/>
      <point x="536" y="172" type="curve"/>
    </contour>
    <contour>
      <point x="345" y="345" type="line"/>
      <point x="45" y="345" type="line"/>
      <point x="45" y="285" type="line"/>
      <point x="345" y="285" type="line"/>
    </contour>
    <contour>
      <point x="345" y="234" type="line"/>
      <point x="45" y="234" type="line"/>
      <point x="45" y="174" type="line"/>
      <point x="345" y="174" type="line"/>
    </contour>
  </outline>
</glyph>
